<svg xmlns="http://www.w3.org/2000/svg" width="60" height="60" viewBox="0 0 60 60" fill="none"><metadata><rdf:RDF xmlns:rdf="http://www.w3.org/1999/02/22-rdf-syntax-ns#" xmlns:dc="http://purl.org/dc/elements/1.1/"><rdf:Description><dc:creator>RealFaviconGenerator</dc:creator><dc:source>https://realfavicongenerator.net</dc:source></rdf:Description></rdf:RDF></metadata><path d="M29 2.57735C29.6188 2.22008 30.3812 2.22008 31 2.57735L53.2487 15.4226C53.8675 15.7799 54.2487 16.4402 54.2487 17.1547V42.8453C54.2487 43.5598 53.8675 44.2201 53.2487 44.5774L31 57.4226C30.3812 57.7799 29.6188 57.7799 29 57.4226L6.75129 44.5774C6.13249 44.2201 5.75129 43.5598 5.75129 42.8453V17.1547C5.75129 16.4402 6.13249 15.7799 6.75129 15.4226L29 2.57735Z" fill="#06AED4"></path><path d="M13.3026 37H10.4901L15.6108 22.4545H18.8636L23.9915 37H21.179L17.294 25.4375H17.1804L13.3026 37ZM13.3949 31.2969H21.0653V33.4134H13.3949V31.2969ZM25.7653 37V35.0966L30.815 30.1463C31.2979 29.6586 31.7004 29.2254 32.0224 28.8466C32.3443 28.4678 32.5858 28.1009 32.7468 27.7457C32.9078 27.3906 32.9883 27.0118 32.9883 26.6094C32.9883 26.1501 32.8841 25.7571 32.6758 25.4304C32.4674 25.099 32.181 24.8433 31.8164 24.6634C31.4518 24.4834 31.0375 24.3935 30.5735 24.3935C30.0953 24.3935 29.6763 24.4929 29.3164 24.6918C28.9566 24.8859 28.6772 25.1629 28.4783 25.5227C28.2842 25.8826 28.1871 26.3111 28.1871 26.8082H25.68C25.68 25.8849 25.8907 25.0824 26.3121 24.4006C26.7335 23.7187 27.3136 23.1908 28.0522 22.8168C28.7956 22.4427 29.6478 22.2557 30.609 22.2557C31.5844 22.2557 32.4414 22.438 33.18 22.8026C33.9187 23.1671 34.4916 23.6667 34.8988 24.3011C35.3107 24.9356 35.5167 25.66 35.5167 26.4744C35.5167 27.0189 35.4125 27.554 35.2042 28.0795C34.9959 28.6051 34.6289 29.1875 34.1033 29.8267C33.5825 30.4659 32.851 31.2401 31.9087 32.1491L29.4016 34.6989V34.7983H35.7369V37H25.7653ZM38.3292 37V22.4545H43.8974C44.9485 22.4545 45.8221 22.6203 46.5181 22.9517C47.2189 23.2784 47.7421 23.7259 48.0877 24.294C48.4381 24.8622 48.6133 25.5062 48.6133 26.2259C48.6133 26.8177 48.4996 27.3243 48.2724 27.7457C48.0451 28.1624 47.7397 28.5009 47.3562 28.7614C46.9727 29.0218 46.5442 29.2088 46.0707 29.3224V29.4645C46.5868 29.4929 47.0816 29.6515 47.555 29.9403C48.0333 30.2244 48.4239 30.6269 48.7269 31.1477C49.0299 31.6686 49.1815 32.2983 49.1815 33.0369C49.1815 33.7898 48.9992 34.4669 48.6346 35.0682C48.27 35.6648 47.7208 36.1359 46.9869 36.4815C46.253 36.8272 45.3297 37 44.217 37H38.3292ZM40.9641 34.7983H43.7979C44.7544 34.7983 45.4433 34.616 45.8647 34.2514C46.2908 33.8821 46.5039 33.4086 46.5039 32.831C46.5039 32.4001 46.3974 32.0118 46.1843 31.6662C45.9712 31.3158 45.6682 31.0412 45.2752 30.8423C44.8822 30.6387 44.4135 30.5369 43.869 30.5369H40.9641V34.7983ZM40.9641 28.6406H43.5707C44.0252 28.6406 44.4348 28.5578 44.7994 28.392C45.1639 28.2216 45.4504 27.9825 45.6587 27.6747C45.8718 27.3622 45.9783 26.9929 45.9783 26.5668C45.9783 26.0033 45.7795 25.5393 45.3817 25.1747C44.9888 24.8101 44.404 24.6278 43.6275 24.6278H40.9641V28.6406Z" fill="white"></path></svg>