<svg xmlns="http://www.w3.org/2000/svg" width="24" height="24" viewBox="0 0 24 24" fill="none"><metadata><rdf:RDF xmlns:rdf="http://www.w3.org/1999/02/22-rdf-syntax-ns#" xmlns:dc="http://purl.org/dc/elements/1.1/"><rdf:Description><dc:creator>RealFaviconGenerator</dc:creator><dc:source>https://realfavicongenerator.net</dc:source></rdf:Description></rdf:RDF></metadata><g clip-path="url(#clip0_7802_823)">
<path d="M11 0.57735C11.6188 0.220084 12.3812 0.220085 13 0.57735L21.3923 5.42265C22.0111 5.77992 22.3923 6.44017 22.3923 7.1547V16.8453C22.3923 17.5598 22.0111 18.2201 21.3923 18.5774L13 23.4226C12.3812 23.7799 11.6188 23.7799 11 23.4226L2.6077 18.5774C1.98889 18.2201 1.6077 17.5598 1.6077 16.8453V7.1547C1.6077 6.44017 1.98889 5.77992 2.6077 5.42265L11 0.57735Z" fill="#06AED4"></path>
<path d="M8.8608 16V7.27273H12.2017C12.8324 7.27273 13.3565 7.37216 13.7741 7.57102C14.1946 7.76705 14.5085 8.03551 14.7159 8.37642C14.9261 8.71733 15.0312 9.10369 15.0312 9.53551C15.0312 9.89062 14.9631 10.1946 14.8267 10.4474C14.6903 10.6974 14.5071 10.9006 14.277 11.0568C14.0469 11.2131 13.7898 11.3253 13.5057 11.3935V11.4787C13.8153 11.4957 14.1122 11.5909 14.3963 11.7642C14.6832 11.9347 14.9176 12.1761 15.0994 12.4886C15.2813 12.8011 15.3722 13.179 15.3722 13.6222C15.3722 14.0739 15.2628 14.4801 15.044 14.8409C14.8253 15.1989 14.4957 15.4815 14.0554 15.6889C13.6151 15.8963 13.0611 16 12.3935 16H8.8608ZM10.4418 14.679H12.142C12.7159 14.679 13.1293 14.5696 13.3821 14.3509C13.6378 14.1293 13.7656 13.8452 13.7656 13.4986C13.7656 13.2401 13.7017 13.0071 13.5739 12.7997C13.446 12.5895 13.2642 12.4247 13.0284 12.3054C12.7926 12.1832 12.5114 12.1222 12.1847 12.1222H10.4418V14.679ZM10.4418 10.9844H12.0057C12.2784 10.9844 12.5241 10.9347 12.7429 10.8352C12.9616 10.733 13.1335 10.5895 13.2585 10.4048C13.3864 10.2173 13.4503 9.99574 13.4503 9.74006C13.4503 9.40199 13.331 9.12358 13.0923 8.90483C12.8565 8.68608 12.5057 8.5767 12.0398 8.5767H10.4418V10.9844Z" fill="white"></path>
</g><defs>
<clipPath id="clip0_7802_823">
<rect width="24" height="24" fill="white"></rect>
</clipPath>
</defs></svg>