<svg width="48" height="48" viewBox="0 0 48 48" fill="none" xmlns="http://www.w3.org/2000/svg">
<path d="M0 24C0 10.7452 10.7452 0 24 0C37.2548 0 48 10.7452 48 24C48 37.2548 37.2548 48 24 48C10.7452 48 0 37.2548 0 24Z" fill="#FEE4E2"/>
<path d="M24 20V24M24 28H24.01M14 20.5227V27.4773C14 27.7218 14 27.8441 14.0276 27.9592C14.0521 28.0613 14.0925 28.1588 14.1474 28.2483C14.2092 28.3492 14.2957 28.4357 14.4686 28.6086L19.3914 33.5314C19.5643 33.7043 19.6508 33.7908 19.7517 33.8526C19.8412 33.9075 19.9387 33.9479 20.0408 33.9724C20.1559 34 20.2782 34 20.5227 34H27.4773C27.7218 34 27.8441 34 27.9592 33.9724C28.0613 33.9479 28.1588 33.9075 28.2483 33.8526C28.3492 33.7908 28.4357 33.7043 28.6086 33.5314L33.5314 28.6086C33.7043 28.4357 33.7908 28.3492 33.8526 28.2483C33.9075 28.1588 33.9479 28.0613 33.9724 27.9592C34 27.8441 34 27.7218 34 27.4773V20.5227C34 20.2782 34 20.1559 33.9724 20.0408C33.9479 19.9387 33.9075 19.8412 33.8526 19.7517C33.7908 19.6508 33.7043 19.5643 33.5314 19.3914L28.6086 14.4686C28.4357 14.2957 28.3492 14.2092 28.2483 14.1474C28.1588 14.0925 28.0613 14.0521 27.9592 14.0276C27.8441 14 27.7218 14 27.4773 14H20.5227C20.2782 14 20.1559 14 20.0408 14.0276C19.9387 14.0521 19.8412 14.0925 19.7517 14.1474C19.6508 14.2092 19.5643 14.2957 19.3914 14.4686L14.4686 19.3914C14.2957 19.5643 14.2092 19.6508 14.1474 19.7517C14.0925 19.8412 14.0521 19.9387 14.0276 20.0408C14 20.1559 14 20.2782 14 20.5227Z" stroke="#B42318" stroke-width="2" stroke-linecap="round" stroke-linejoin="round"/>
</svg>
