<svg width="216" height="216" viewBox="0 0 216 216" fill="none" xmlns="http://www.w3.org/2000/svg">
<mask id="mask0_452_3756" style="mask-type:alpha" maskUnits="userSpaceOnUse" x="-120" y="-120" width="336" height="336">
<rect width="336" height="336" transform="translate(-120 -120)" fill="url(#paint0_linear_452_3756)"/>
</mask>
<g mask="url(#mask0_452_3756)">
<path d="M-112 -113.5C-112 -112.672 -112.672 -112 -113.5 -112C-114.328 -112 -115 -112.672 -115 -113.5C-115 -114.328 -114.328 -115 -113.5 -115C-112.672 -115 -112 -114.328 -112 -113.5Z" fill="#D5D7DA"/>
<path d="M-93 -113.5C-93 -112.672 -93.6716 -112 -94.5 -112C-95.3284 -112 -96 -112.672 -96 -113.5C-96 -114.328 -95.3284 -115 -94.5 -115C-93.6716 -115 -93 -114.328 -93 -113.5Z" fill="#D5D7DA"/>
<path d="M-74 -113.5C-74 -112.672 -74.6716 -112 -75.5 -112C-76.3284 -112 -77 -112.672 -77 -113.5C-77 -114.328 -76.3284 -115 -75.5 -115C-74.6716 -115 -74 -114.328 -74 -113.5Z" fill="#D5D7DA"/>
<path d="M-55 -113.5C-55 -112.672 -55.6716 -112 -56.5 -112C-57.3284 -112 -58 -112.672 -58 -113.5C-58 -114.328 -57.3284 -115 -56.5 -115C-55.6716 -115 -55 -114.328 -55 -113.5Z" fill="#D5D7DA"/>
<path d="M-36 -113.5C-36 -112.672 -36.6716 -112 -37.5 -112C-38.3284 -112 -39 -112.672 -39 -113.5C-39 -114.328 -38.3284 -115 -37.5 -115C-36.6716 -115 -36 -114.328 -36 -113.5Z" fill="#D5D7DA"/>
<path d="M-17 -113.5C-17 -112.672 -17.6716 -112 -18.5 -112C-19.3284 -112 -20 -112.672 -20 -113.5C-20 -114.328 -19.3284 -115 -18.5 -115C-17.6716 -115 -17 -114.328 -17 -113.5Z" fill="#D5D7DA"/>
<path d="M2 -113.5C2 -112.672 1.32843 -112 0.5 -112C-0.32843 -112 -1 -112.672 -1 -113.5C-1 -114.328 -0.32843 -115 0.5 -115C1.32843 -115 2 -114.328 2 -113.5Z" fill="#D5D7DA"/>
<path d="M21 -113.5C21 -112.672 20.3284 -112 19.5 -112C18.6716 -112 18 -112.672 18 -113.5C18 -114.328 18.6716 -115 19.5 -115C20.3284 -115 21 -114.328 21 -113.5Z" fill="#D5D7DA"/>
<path d="M40 -113.5C40 -112.672 39.3284 -112 38.5 -112C37.6716 -112 37 -112.672 37 -113.5C37 -114.328 37.6716 -115 38.5 -115C39.3284 -115 40 -114.328 40 -113.5Z" fill="#D5D7DA"/>
<path d="M59 -113.5C59 -112.672 58.3284 -112 57.5 -112C56.6716 -112 56 -112.672 56 -113.5C56 -114.328 56.6716 -115 57.5 -115C58.3284 -115 59 -114.328 59 -113.5Z" fill="#D5D7DA"/>
<path d="M78 -113.5C78 -112.672 77.3284 -112 76.5 -112C75.6716 -112 75 -112.672 75 -113.5C75 -114.328 75.6716 -115 76.5 -115C77.3284 -115 78 -114.328 78 -113.5Z" fill="#D5D7DA"/>
<path d="M97 -113.5C97 -112.672 96.3284 -112 95.5 -112C94.6716 -112 94 -112.672 94 -113.5C94 -114.328 94.6716 -115 95.5 -115C96.3284 -115 97 -114.328 97 -113.5Z" fill="#D5D7DA"/>
<path d="M116 -113.5C116 -112.672 115.328 -112 114.5 -112C113.672 -112 113 -112.672 113 -113.5C113 -114.328 113.672 -115 114.5 -115C115.328 -115 116 -114.328 116 -113.5Z" fill="#D5D7DA"/>
<path d="M135 -113.5C135 -112.672 134.328 -112 133.5 -112C132.672 -112 132 -112.672 132 -113.5C132 -114.328 132.672 -115 133.5 -115C134.328 -115 135 -114.328 135 -113.5Z" fill="#D5D7DA"/>
<path d="M154 -113.5C154 -112.672 153.328 -112 152.5 -112C151.672 -112 151 -112.672 151 -113.5C151 -114.328 151.672 -115 152.5 -115C153.328 -115 154 -114.328 154 -113.5Z" fill="#D5D7DA"/>
<path d="M173 -113.5C173 -112.672 172.328 -112 171.5 -112C170.672 -112 170 -112.672 170 -113.5C170 -114.328 170.672 -115 171.5 -115C172.328 -115 173 -114.328 173 -113.5Z" fill="#D5D7DA"/>
<path d="M192 -113.5C192 -112.672 191.328 -112 190.5 -112C189.672 -112 189 -112.672 189 -113.5C189 -114.328 189.672 -115 190.5 -115C191.328 -115 192 -114.328 192 -113.5Z" fill="#D5D7DA"/>
<path d="M211 -113.5C211 -112.672 210.328 -112 209.5 -112C208.672 -112 208 -112.672 208 -113.5C208 -114.328 208.672 -115 209.5 -115C210.328 -115 211 -114.328 211 -113.5Z" fill="#D5D7DA"/>
<path d="M-112 -94.5C-112 -93.6716 -112.672 -93 -113.5 -93C-114.328 -93 -115 -93.6716 -115 -94.5C-115 -95.3284 -114.328 -96 -113.5 -96C-112.672 -96 -112 -95.3284 -112 -94.5Z" fill="#D5D7DA"/>
<path d="M-93 -94.5C-93 -93.6716 -93.6716 -93 -94.5 -93C-95.3284 -93 -96 -93.6716 -96 -94.5C-96 -95.3284 -95.3284 -96 -94.5 -96C-93.6716 -96 -93 -95.3284 -93 -94.5Z" fill="#D5D7DA"/>
<path d="M-74 -94.5C-74 -93.6716 -74.6716 -93 -75.5 -93C-76.3284 -93 -77 -93.6716 -77 -94.5C-77 -95.3284 -76.3284 -96 -75.5 -96C-74.6716 -96 -74 -95.3284 -74 -94.5Z" fill="#D5D7DA"/>
<path d="M-55 -94.5C-55 -93.6716 -55.6716 -93 -56.5 -93C-57.3284 -93 -58 -93.6716 -58 -94.5C-58 -95.3284 -57.3284 -96 -56.5 -96C-55.6716 -96 -55 -95.3284 -55 -94.5Z" fill="#D5D7DA"/>
<path d="M-36 -94.5C-36 -93.6716 -36.6716 -93 -37.5 -93C-38.3284 -93 -39 -93.6716 -39 -94.5C-39 -95.3284 -38.3284 -96 -37.5 -96C-36.6716 -96 -36 -95.3284 -36 -94.5Z" fill="#D5D7DA"/>
<path d="M-17 -94.5C-17 -93.6716 -17.6716 -93 -18.5 -93C-19.3284 -93 -20 -93.6716 -20 -94.5C-20 -95.3284 -19.3284 -96 -18.5 -96C-17.6716 -96 -17 -95.3284 -17 -94.5Z" fill="#D5D7DA"/>
<path d="M2 -94.5C2 -93.6716 1.32843 -93 0.5 -93C-0.32843 -93 -1 -93.6716 -1 -94.5C-1 -95.3284 -0.32843 -96 0.5 -96C1.32843 -96 2 -95.3284 2 -94.5Z" fill="#D5D7DA"/>
<path d="M21 -94.5C21 -93.6716 20.3284 -93 19.5 -93C18.6716 -93 18 -93.6716 18 -94.5C18 -95.3284 18.6716 -96 19.5 -96C20.3284 -96 21 -95.3284 21 -94.5Z" fill="#D5D7DA"/>
<path d="M40 -94.5C40 -93.6716 39.3284 -93 38.5 -93C37.6716 -93 37 -93.6716 37 -94.5C37 -95.3284 37.6716 -96 38.5 -96C39.3284 -96 40 -95.3284 40 -94.5Z" fill="#D5D7DA"/>
<path d="M59 -94.5C59 -93.6716 58.3284 -93 57.5 -93C56.6716 -93 56 -93.6716 56 -94.5C56 -95.3284 56.6716 -96 57.5 -96C58.3284 -96 59 -95.3284 59 -94.5Z" fill="#D5D7DA"/>
<path d="M78 -94.5C78 -93.6716 77.3284 -93 76.5 -93C75.6716 -93 75 -93.6716 75 -94.5C75 -95.3284 75.6716 -96 76.5 -96C77.3284 -96 78 -95.3284 78 -94.5Z" fill="#D5D7DA"/>
<path d="M97 -94.5C97 -93.6716 96.3284 -93 95.5 -93C94.6716 -93 94 -93.6716 94 -94.5C94 -95.3284 94.6716 -96 95.5 -96C96.3284 -96 97 -95.3284 97 -94.5Z" fill="#D5D7DA"/>
<path d="M116 -94.5C116 -93.6716 115.328 -93 114.5 -93C113.672 -93 113 -93.6716 113 -94.5C113 -95.3284 113.672 -96 114.5 -96C115.328 -96 116 -95.3284 116 -94.5Z" fill="#D5D7DA"/>
<path d="M135 -94.5C135 -93.6716 134.328 -93 133.5 -93C132.672 -93 132 -93.6716 132 -94.5C132 -95.3284 132.672 -96 133.5 -96C134.328 -96 135 -95.3284 135 -94.5Z" fill="#D5D7DA"/>
<path d="M154 -94.5C154 -93.6716 153.328 -93 152.5 -93C151.672 -93 151 -93.6716 151 -94.5C151 -95.3284 151.672 -96 152.5 -96C153.328 -96 154 -95.3284 154 -94.5Z" fill="#D5D7DA"/>
<path d="M173 -94.5C173 -93.6716 172.328 -93 171.5 -93C170.672 -93 170 -93.6716 170 -94.5C170 -95.3284 170.672 -96 171.5 -96C172.328 -96 173 -95.3284 173 -94.5Z" fill="#D5D7DA"/>
<path d="M192 -94.5C192 -93.6716 191.328 -93 190.5 -93C189.672 -93 189 -93.6716 189 -94.5C189 -95.3284 189.672 -96 190.5 -96C191.328 -96 192 -95.3284 192 -94.5Z" fill="#D5D7DA"/>
<path d="M211 -94.5C211 -93.6716 210.328 -93 209.5 -93C208.672 -93 208 -93.6716 208 -94.5C208 -95.3284 208.672 -96 209.5 -96C210.328 -96 211 -95.3284 211 -94.5Z" fill="#D5D7DA"/>
<path d="M-112 -75.5C-112 -74.6716 -112.672 -74 -113.5 -74C-114.328 -74 -115 -74.6716 -115 -75.5C-115 -76.3284 -114.328 -77 -113.5 -77C-112.672 -77 -112 -76.3284 -112 -75.5Z" fill="#D5D7DA"/>
<path d="M-93 -75.5C-93 -74.6716 -93.6716 -74 -94.5 -74C-95.3284 -74 -96 -74.6716 -96 -75.5C-96 -76.3284 -95.3284 -77 -94.5 -77C-93.6716 -77 -93 -76.3284 -93 -75.5Z" fill="#D5D7DA"/>
<path d="M-74 -75.5C-74 -74.6716 -74.6716 -74 -75.5 -74C-76.3284 -74 -77 -74.6716 -77 -75.5C-77 -76.3284 -76.3284 -77 -75.5 -77C-74.6716 -77 -74 -76.3284 -74 -75.5Z" fill="#D5D7DA"/>
<path d="M-55 -75.5C-55 -74.6716 -55.6716 -74 -56.5 -74C-57.3284 -74 -58 -74.6716 -58 -75.5C-58 -76.3284 -57.3284 -77 -56.5 -77C-55.6716 -77 -55 -76.3284 -55 -75.5Z" fill="#D5D7DA"/>
<path d="M-36 -75.5C-36 -74.6716 -36.6716 -74 -37.5 -74C-38.3284 -74 -39 -74.6716 -39 -75.5C-39 -76.3284 -38.3284 -77 -37.5 -77C-36.6716 -77 -36 -76.3284 -36 -75.5Z" fill="#D5D7DA"/>
<path d="M-17 -75.5C-17 -74.6716 -17.6716 -74 -18.5 -74C-19.3284 -74 -20 -74.6716 -20 -75.5C-20 -76.3284 -19.3284 -77 -18.5 -77C-17.6716 -77 -17 -76.3284 -17 -75.5Z" fill="#D5D7DA"/>
<path d="M2 -75.5C2 -74.6716 1.32843 -74 0.5 -74C-0.32843 -74 -1 -74.6716 -1 -75.5C-1 -76.3284 -0.32843 -77 0.5 -77C1.32843 -77 2 -76.3284 2 -75.5Z" fill="#D5D7DA"/>
<path d="M21 -75.5C21 -74.6716 20.3284 -74 19.5 -74C18.6716 -74 18 -74.6716 18 -75.5C18 -76.3284 18.6716 -77 19.5 -77C20.3284 -77 21 -76.3284 21 -75.5Z" fill="#D5D7DA"/>
<path d="M40 -75.5C40 -74.6716 39.3284 -74 38.5 -74C37.6716 -74 37 -74.6716 37 -75.5C37 -76.3284 37.6716 -77 38.5 -77C39.3284 -77 40 -76.3284 40 -75.5Z" fill="#D5D7DA"/>
<path d="M59 -75.5C59 -74.6716 58.3284 -74 57.5 -74C56.6716 -74 56 -74.6716 56 -75.5C56 -76.3284 56.6716 -77 57.5 -77C58.3284 -77 59 -76.3284 59 -75.5Z" fill="#D5D7DA"/>
<path d="M78 -75.5C78 -74.6716 77.3284 -74 76.5 -74C75.6716 -74 75 -74.6716 75 -75.5C75 -76.3284 75.6716 -77 76.5 -77C77.3284 -77 78 -76.3284 78 -75.5Z" fill="#D5D7DA"/>
<path d="M97 -75.5C97 -74.6716 96.3284 -74 95.5 -74C94.6716 -74 94 -74.6716 94 -75.5C94 -76.3284 94.6716 -77 95.5 -77C96.3284 -77 97 -76.3284 97 -75.5Z" fill="#D5D7DA"/>
<path d="M116 -75.5C116 -74.6716 115.328 -74 114.5 -74C113.672 -74 113 -74.6716 113 -75.5C113 -76.3284 113.672 -77 114.5 -77C115.328 -77 116 -76.3284 116 -75.5Z" fill="#D5D7DA"/>
<path d="M135 -75.5C135 -74.6716 134.328 -74 133.5 -74C132.672 -74 132 -74.6716 132 -75.5C132 -76.3284 132.672 -77 133.5 -77C134.328 -77 135 -76.3284 135 -75.5Z" fill="#D5D7DA"/>
<path d="M154 -75.5C154 -74.6716 153.328 -74 152.5 -74C151.672 -74 151 -74.6716 151 -75.5C151 -76.3284 151.672 -77 152.5 -77C153.328 -77 154 -76.3284 154 -75.5Z" fill="#D5D7DA"/>
<path d="M173 -75.5C173 -74.6716 172.328 -74 171.5 -74C170.672 -74 170 -74.6716 170 -75.5C170 -76.3284 170.672 -77 171.5 -77C172.328 -77 173 -76.3284 173 -75.5Z" fill="#D5D7DA"/>
<path d="M192 -75.5C192 -74.6716 191.328 -74 190.5 -74C189.672 -74 189 -74.6716 189 -75.5C189 -76.3284 189.672 -77 190.5 -77C191.328 -77 192 -76.3284 192 -75.5Z" fill="#D5D7DA"/>
<path d="M211 -75.5C211 -74.6716 210.328 -74 209.5 -74C208.672 -74 208 -74.6716 208 -75.5C208 -76.3284 208.672 -77 209.5 -77C210.328 -77 211 -76.3284 211 -75.5Z" fill="#D5D7DA"/>
<path d="M-112 -56.5C-112 -55.6716 -112.672 -55 -113.5 -55C-114.328 -55 -115 -55.6716 -115 -56.5C-115 -57.3284 -114.328 -58 -113.5 -58C-112.672 -58 -112 -57.3284 -112 -56.5Z" fill="#D5D7DA"/>
<path d="M-93 -56.5C-93 -55.6716 -93.6716 -55 -94.5 -55C-95.3284 -55 -96 -55.6716 -96 -56.5C-96 -57.3284 -95.3284 -58 -94.5 -58C-93.6716 -58 -93 -57.3284 -93 -56.5Z" fill="#D5D7DA"/>
<path d="M-74 -56.5C-74 -55.6716 -74.6716 -55 -75.5 -55C-76.3284 -55 -77 -55.6716 -77 -56.5C-77 -57.3284 -76.3284 -58 -75.5 -58C-74.6716 -58 -74 -57.3284 -74 -56.5Z" fill="#D5D7DA"/>
<path d="M-55 -56.5C-55 -55.6716 -55.6716 -55 -56.5 -55C-57.3284 -55 -58 -55.6716 -58 -56.5C-58 -57.3284 -57.3284 -58 -56.5 -58C-55.6716 -58 -55 -57.3284 -55 -56.5Z" fill="#D5D7DA"/>
<path d="M-36 -56.5C-36 -55.6716 -36.6716 -55 -37.5 -55C-38.3284 -55 -39 -55.6716 -39 -56.5C-39 -57.3284 -38.3284 -58 -37.5 -58C-36.6716 -58 -36 -57.3284 -36 -56.5Z" fill="#D5D7DA"/>
<path d="M-17 -56.5C-17 -55.6716 -17.6716 -55 -18.5 -55C-19.3284 -55 -20 -55.6716 -20 -56.5C-20 -57.3284 -19.3284 -58 -18.5 -58C-17.6716 -58 -17 -57.3284 -17 -56.5Z" fill="#D5D7DA"/>
<path d="M2 -56.5C2 -55.6716 1.32843 -55 0.5 -55C-0.32843 -55 -1 -55.6716 -1 -56.5C-1 -57.3284 -0.32843 -58 0.5 -58C1.32843 -58 2 -57.3284 2 -56.5Z" fill="#D5D7DA"/>
<path d="M21 -56.5C21 -55.6716 20.3284 -55 19.5 -55C18.6716 -55 18 -55.6716 18 -56.5C18 -57.3284 18.6716 -58 19.5 -58C20.3284 -58 21 -57.3284 21 -56.5Z" fill="#D5D7DA"/>
<path d="M40 -56.5C40 -55.6716 39.3284 -55 38.5 -55C37.6716 -55 37 -55.6716 37 -56.5C37 -57.3284 37.6716 -58 38.5 -58C39.3284 -58 40 -57.3284 40 -56.5Z" fill="#D5D7DA"/>
<path d="M59 -56.5C59 -55.6716 58.3284 -55 57.5 -55C56.6716 -55 56 -55.6716 56 -56.5C56 -57.3284 56.6716 -58 57.5 -58C58.3284 -58 59 -57.3284 59 -56.5Z" fill="#D5D7DA"/>
<path d="M78 -56.5C78 -55.6716 77.3284 -55 76.5 -55C75.6716 -55 75 -55.6716 75 -56.5C75 -57.3284 75.6716 -58 76.5 -58C77.3284 -58 78 -57.3284 78 -56.5Z" fill="#D5D7DA"/>
<path d="M97 -56.5C97 -55.6716 96.3284 -55 95.5 -55C94.6716 -55 94 -55.6716 94 -56.5C94 -57.3284 94.6716 -58 95.5 -58C96.3284 -58 97 -57.3284 97 -56.5Z" fill="#D5D7DA"/>
<path d="M116 -56.5C116 -55.6716 115.328 -55 114.5 -55C113.672 -55 113 -55.6716 113 -56.5C113 -57.3284 113.672 -58 114.5 -58C115.328 -58 116 -57.3284 116 -56.5Z" fill="#D5D7DA"/>
<path d="M135 -56.5C135 -55.6716 134.328 -55 133.5 -55C132.672 -55 132 -55.6716 132 -56.5C132 -57.3284 132.672 -58 133.5 -58C134.328 -58 135 -57.3284 135 -56.5Z" fill="#D5D7DA"/>
<path d="M154 -56.5C154 -55.6716 153.328 -55 152.5 -55C151.672 -55 151 -55.6716 151 -56.5C151 -57.3284 151.672 -58 152.5 -58C153.328 -58 154 -57.3284 154 -56.5Z" fill="#D5D7DA"/>
<path d="M173 -56.5C173 -55.6716 172.328 -55 171.5 -55C170.672 -55 170 -55.6716 170 -56.5C170 -57.3284 170.672 -58 171.5 -58C172.328 -58 173 -57.3284 173 -56.5Z" fill="#D5D7DA"/>
<path d="M192 -56.5C192 -55.6716 191.328 -55 190.5 -55C189.672 -55 189 -55.6716 189 -56.5C189 -57.3284 189.672 -58 190.5 -58C191.328 -58 192 -57.3284 192 -56.5Z" fill="#D5D7DA"/>
<path d="M211 -56.5C211 -55.6716 210.328 -55 209.5 -55C208.672 -55 208 -55.6716 208 -56.5C208 -57.3284 208.672 -58 209.5 -58C210.328 -58 211 -57.3284 211 -56.5Z" fill="#D5D7DA"/>
<path d="M-112 -37.5C-112 -36.6716 -112.672 -36 -113.5 -36C-114.328 -36 -115 -36.6716 -115 -37.5C-115 -38.3284 -114.328 -39 -113.5 -39C-112.672 -39 -112 -38.3284 -112 -37.5Z" fill="#D5D7DA"/>
<path d="M-93 -37.5C-93 -36.6716 -93.6716 -36 -94.5 -36C-95.3284 -36 -96 -36.6716 -96 -37.5C-96 -38.3284 -95.3284 -39 -94.5 -39C-93.6716 -39 -93 -38.3284 -93 -37.5Z" fill="#D5D7DA"/>
<path d="M-74 -37.5C-74 -36.6716 -74.6716 -36 -75.5 -36C-76.3284 -36 -77 -36.6716 -77 -37.5C-77 -38.3284 -76.3284 -39 -75.5 -39C-74.6716 -39 -74 -38.3284 -74 -37.5Z" fill="#D5D7DA"/>
<path d="M-55 -37.5C-55 -36.6716 -55.6716 -36 -56.5 -36C-57.3284 -36 -58 -36.6716 -58 -37.5C-58 -38.3284 -57.3284 -39 -56.5 -39C-55.6716 -39 -55 -38.3284 -55 -37.5Z" fill="#D5D7DA"/>
<path d="M-36 -37.5C-36 -36.6716 -36.6716 -36 -37.5 -36C-38.3284 -36 -39 -36.6716 -39 -37.5C-39 -38.3284 -38.3284 -39 -37.5 -39C-36.6716 -39 -36 -38.3284 -36 -37.5Z" fill="#D5D7DA"/>
<path d="M-17 -37.5C-17 -36.6716 -17.6716 -36 -18.5 -36C-19.3284 -36 -20 -36.6716 -20 -37.5C-20 -38.3284 -19.3284 -39 -18.5 -39C-17.6716 -39 -17 -38.3284 -17 -37.5Z" fill="#D5D7DA"/>
<path d="M2 -37.5C2 -36.6716 1.32843 -36 0.5 -36C-0.32843 -36 -1 -36.6716 -1 -37.5C-1 -38.3284 -0.32843 -39 0.5 -39C1.32843 -39 2 -38.3284 2 -37.5Z" fill="#D5D7DA"/>
<path d="M21 -37.5C21 -36.6716 20.3284 -36 19.5 -36C18.6716 -36 18 -36.6716 18 -37.5C18 -38.3284 18.6716 -39 19.5 -39C20.3284 -39 21 -38.3284 21 -37.5Z" fill="#D5D7DA"/>
<path d="M40 -37.5C40 -36.6716 39.3284 -36 38.5 -36C37.6716 -36 37 -36.6716 37 -37.5C37 -38.3284 37.6716 -39 38.5 -39C39.3284 -39 40 -38.3284 40 -37.5Z" fill="#D5D7DA"/>
<path d="M59 -37.5C59 -36.6716 58.3284 -36 57.5 -36C56.6716 -36 56 -36.6716 56 -37.5C56 -38.3284 56.6716 -39 57.5 -39C58.3284 -39 59 -38.3284 59 -37.5Z" fill="#D5D7DA"/>
<path d="M78 -37.5C78 -36.6716 77.3284 -36 76.5 -36C75.6716 -36 75 -36.6716 75 -37.5C75 -38.3284 75.6716 -39 76.5 -39C77.3284 -39 78 -38.3284 78 -37.5Z" fill="#D5D7DA"/>
<path d="M97 -37.5C97 -36.6716 96.3284 -36 95.5 -36C94.6716 -36 94 -36.6716 94 -37.5C94 -38.3284 94.6716 -39 95.5 -39C96.3284 -39 97 -38.3284 97 -37.5Z" fill="#D5D7DA"/>
<path d="M116 -37.5C116 -36.6716 115.328 -36 114.5 -36C113.672 -36 113 -36.6716 113 -37.5C113 -38.3284 113.672 -39 114.5 -39C115.328 -39 116 -38.3284 116 -37.5Z" fill="#D5D7DA"/>
<path d="M135 -37.5C135 -36.6716 134.328 -36 133.5 -36C132.672 -36 132 -36.6716 132 -37.5C132 -38.3284 132.672 -39 133.5 -39C134.328 -39 135 -38.3284 135 -37.5Z" fill="#D5D7DA"/>
<path d="M154 -37.5C154 -36.6716 153.328 -36 152.5 -36C151.672 -36 151 -36.6716 151 -37.5C151 -38.3284 151.672 -39 152.5 -39C153.328 -39 154 -38.3284 154 -37.5Z" fill="#D5D7DA"/>
<path d="M173 -37.5C173 -36.6716 172.328 -36 171.5 -36C170.672 -36 170 -36.6716 170 -37.5C170 -38.3284 170.672 -39 171.5 -39C172.328 -39 173 -38.3284 173 -37.5Z" fill="#D5D7DA"/>
<path d="M192 -37.5C192 -36.6716 191.328 -36 190.5 -36C189.672 -36 189 -36.6716 189 -37.5C189 -38.3284 189.672 -39 190.5 -39C191.328 -39 192 -38.3284 192 -37.5Z" fill="#D5D7DA"/>
<path d="M211 -37.5C211 -36.6716 210.328 -36 209.5 -36C208.672 -36 208 -36.6716 208 -37.5C208 -38.3284 208.672 -39 209.5 -39C210.328 -39 211 -38.3284 211 -37.5Z" fill="#D5D7DA"/>
<path d="M-112 -18.5C-112 -17.6716 -112.672 -17 -113.5 -17C-114.328 -17 -115 -17.6716 -115 -18.5C-115 -19.3284 -114.328 -20 -113.5 -20C-112.672 -20 -112 -19.3284 -112 -18.5Z" fill="#D5D7DA"/>
<path d="M-93 -18.5C-93 -17.6716 -93.6716 -17 -94.5 -17C-95.3284 -17 -96 -17.6716 -96 -18.5C-96 -19.3284 -95.3284 -20 -94.5 -20C-93.6716 -20 -93 -19.3284 -93 -18.5Z" fill="#D5D7DA"/>
<path d="M-74 -18.5C-74 -17.6716 -74.6716 -17 -75.5 -17C-76.3284 -17 -77 -17.6716 -77 -18.5C-77 -19.3284 -76.3284 -20 -75.5 -20C-74.6716 -20 -74 -19.3284 -74 -18.5Z" fill="#D5D7DA"/>
<path d="M-55 -18.5C-55 -17.6716 -55.6716 -17 -56.5 -17C-57.3284 -17 -58 -17.6716 -58 -18.5C-58 -19.3284 -57.3284 -20 -56.5 -20C-55.6716 -20 -55 -19.3284 -55 -18.5Z" fill="#D5D7DA"/>
<path d="M-36 -18.5C-36 -17.6716 -36.6716 -17 -37.5 -17C-38.3284 -17 -39 -17.6716 -39 -18.5C-39 -19.3284 -38.3284 -20 -37.5 -20C-36.6716 -20 -36 -19.3284 -36 -18.5Z" fill="#D5D7DA"/>
<path d="M-17 -18.5C-17 -17.6716 -17.6716 -17 -18.5 -17C-19.3284 -17 -20 -17.6716 -20 -18.5C-20 -19.3284 -19.3284 -20 -18.5 -20C-17.6716 -20 -17 -19.3284 -17 -18.5Z" fill="#D5D7DA"/>
<path d="M2 -18.5C2 -17.6716 1.32843 -17 0.5 -17C-0.32843 -17 -1 -17.6716 -1 -18.5C-1 -19.3284 -0.32843 -20 0.5 -20C1.32843 -20 2 -19.3284 2 -18.5Z" fill="#D5D7DA"/>
<path d="M21 -18.5C21 -17.6716 20.3284 -17 19.5 -17C18.6716 -17 18 -17.6716 18 -18.5C18 -19.3284 18.6716 -20 19.5 -20C20.3284 -20 21 -19.3284 21 -18.5Z" fill="#D5D7DA"/>
<path d="M40 -18.5C40 -17.6716 39.3284 -17 38.5 -17C37.6716 -17 37 -17.6716 37 -18.5C37 -19.3284 37.6716 -20 38.5 -20C39.3284 -20 40 -19.3284 40 -18.5Z" fill="#D5D7DA"/>
<path d="M59 -18.5C59 -17.6716 58.3284 -17 57.5 -17C56.6716 -17 56 -17.6716 56 -18.5C56 -19.3284 56.6716 -20 57.5 -20C58.3284 -20 59 -19.3284 59 -18.5Z" fill="#D5D7DA"/>
<path d="M78 -18.5C78 -17.6716 77.3284 -17 76.5 -17C75.6716 -17 75 -17.6716 75 -18.5C75 -19.3284 75.6716 -20 76.5 -20C77.3284 -20 78 -19.3284 78 -18.5Z" fill="#D5D7DA"/>
<path d="M97 -18.5C97 -17.6716 96.3284 -17 95.5 -17C94.6716 -17 94 -17.6716 94 -18.5C94 -19.3284 94.6716 -20 95.5 -20C96.3284 -20 97 -19.3284 97 -18.5Z" fill="#D5D7DA"/>
<path d="M116 -18.5C116 -17.6716 115.328 -17 114.5 -17C113.672 -17 113 -17.6716 113 -18.5C113 -19.3284 113.672 -20 114.5 -20C115.328 -20 116 -19.3284 116 -18.5Z" fill="#D5D7DA"/>
<path d="M135 -18.5C135 -17.6716 134.328 -17 133.5 -17C132.672 -17 132 -17.6716 132 -18.5C132 -19.3284 132.672 -20 133.5 -20C134.328 -20 135 -19.3284 135 -18.5Z" fill="#D5D7DA"/>
<path d="M154 -18.5C154 -17.6716 153.328 -17 152.5 -17C151.672 -17 151 -17.6716 151 -18.5C151 -19.3284 151.672 -20 152.5 -20C153.328 -20 154 -19.3284 154 -18.5Z" fill="#D5D7DA"/>
<path d="M173 -18.5C173 -17.6716 172.328 -17 171.5 -17C170.672 -17 170 -17.6716 170 -18.5C170 -19.3284 170.672 -20 171.5 -20C172.328 -20 173 -19.3284 173 -18.5Z" fill="#D5D7DA"/>
<path d="M192 -18.5C192 -17.6716 191.328 -17 190.5 -17C189.672 -17 189 -17.6716 189 -18.5C189 -19.3284 189.672 -20 190.5 -20C191.328 -20 192 -19.3284 192 -18.5Z" fill="#D5D7DA"/>
<path d="M211 -18.5C211 -17.6716 210.328 -17 209.5 -17C208.672 -17 208 -17.6716 208 -18.5C208 -19.3284 208.672 -20 209.5 -20C210.328 -20 211 -19.3284 211 -18.5Z" fill="#D5D7DA"/>
<path d="M-112 0.5C-112 1.32843 -112.672 2 -113.5 2C-114.328 2 -115 1.32843 -115 0.5C-115 -0.32843 -114.328 -1 -113.5 -1C-112.672 -1 -112 -0.32843 -112 0.5Z" fill="#D5D7DA"/>
<path d="M-93 0.5C-93 1.32843 -93.6716 2 -94.5 2C-95.3284 2 -96 1.32843 -96 0.5C-96 -0.32843 -95.3284 -1 -94.5 -1C-93.6716 -1 -93 -0.32843 -93 0.5Z" fill="#D5D7DA"/>
<path d="M-74 0.5C-74 1.32843 -74.6716 2 -75.5 2C-76.3284 2 -77 1.32843 -77 0.5C-77 -0.32843 -76.3284 -1 -75.5 -1C-74.6716 -1 -74 -0.32843 -74 0.5Z" fill="#D5D7DA"/>
<path d="M-55 0.5C-55 1.32843 -55.6716 2 -56.5 2C-57.3284 2 -58 1.32843 -58 0.5C-58 -0.32843 -57.3284 -1 -56.5 -1C-55.6716 -1 -55 -0.32843 -55 0.5Z" fill="#D5D7DA"/>
<path d="M-36 0.5C-36 1.32843 -36.6716 2 -37.5 2C-38.3284 2 -39 1.32843 -39 0.5C-39 -0.32843 -38.3284 -1 -37.5 -1C-36.6716 -1 -36 -0.32843 -36 0.5Z" fill="#D5D7DA"/>
<path d="M-17 0.5C-17 1.32843 -17.6716 2 -18.5 2C-19.3284 2 -20 1.32843 -20 0.5C-20 -0.32843 -19.3284 -1 -18.5 -1C-17.6716 -1 -17 -0.32843 -17 0.5Z" fill="#D5D7DA"/>
<path d="M2 0.5C2 1.32843 1.32843 2 0.5 2C-0.32843 2 -1 1.32843 -1 0.5C-1 -0.32843 -0.32843 -1 0.5 -1C1.32843 -1 2 -0.32843 2 0.5Z" fill="#D5D7DA"/>
<path d="M21 0.5C21 1.32843 20.3284 2 19.5 2C18.6716 2 18 1.32843 18 0.5C18 -0.32843 18.6716 -1 19.5 -1C20.3284 -1 21 -0.32843 21 0.5Z" fill="#D5D7DA"/>
<path d="M40 0.5C40 1.32843 39.3284 2 38.5 2C37.6716 2 37 1.32843 37 0.5C37 -0.32843 37.6716 -1 38.5 -1C39.3284 -1 40 -0.32843 40 0.5Z" fill="#D5D7DA"/>
<path d="M59 0.5C59 1.32843 58.3284 2 57.5 2C56.6716 2 56 1.32843 56 0.5C56 -0.32843 56.6716 -1 57.5 -1C58.3284 -1 59 -0.32843 59 0.5Z" fill="#D5D7DA"/>
<path d="M78 0.5C78 1.32843 77.3284 2 76.5 2C75.6716 2 75 1.32843 75 0.5C75 -0.32843 75.6716 -1 76.5 -1C77.3284 -1 78 -0.32843 78 0.5Z" fill="#D5D7DA"/>
<path d="M97 0.5C97 1.32843 96.3284 2 95.5 2C94.6716 2 94 1.32843 94 0.5C94 -0.32843 94.6716 -1 95.5 -1C96.3284 -1 97 -0.32843 97 0.5Z" fill="#D5D7DA"/>
<path d="M116 0.5C116 1.32843 115.328 2 114.5 2C113.672 2 113 1.32843 113 0.5C113 -0.32843 113.672 -1 114.5 -1C115.328 -1 116 -0.32843 116 0.5Z" fill="#D5D7DA"/>
<path d="M135 0.5C135 1.32843 134.328 2 133.5 2C132.672 2 132 1.32843 132 0.5C132 -0.32843 132.672 -1 133.5 -1C134.328 -1 135 -0.32843 135 0.5Z" fill="#D5D7DA"/>
<path d="M154 0.5C154 1.32843 153.328 2 152.5 2C151.672 2 151 1.32843 151 0.5C151 -0.32843 151.672 -1 152.5 -1C153.328 -1 154 -0.32843 154 0.5Z" fill="#D5D7DA"/>
<path d="M173 0.5C173 1.32843 172.328 2 171.5 2C170.672 2 170 1.32843 170 0.5C170 -0.32843 170.672 -1 171.5 -1C172.328 -1 173 -0.32843 173 0.5Z" fill="#D5D7DA"/>
<path d="M192 0.5C192 1.32843 191.328 2 190.5 2C189.672 2 189 1.32843 189 0.5C189 -0.32843 189.672 -1 190.5 -1C191.328 -1 192 -0.32843 192 0.5Z" fill="#D5D7DA"/>
<path d="M211 0.5C211 1.32843 210.328 2 209.5 2C208.672 2 208 1.32843 208 0.5C208 -0.32843 208.672 -1 209.5 -1C210.328 -1 211 -0.32843 211 0.5Z" fill="#D5D7DA"/>
<path d="M-112 19.5C-112 20.3284 -112.672 21 -113.5 21C-114.328 21 -115 20.3284 -115 19.5C-115 18.6716 -114.328 18 -113.5 18C-112.672 18 -112 18.6716 -112 19.5Z" fill="#D5D7DA"/>
<path d="M-93 19.5C-93 20.3284 -93.6716 21 -94.5 21C-95.3284 21 -96 20.3284 -96 19.5C-96 18.6716 -95.3284 18 -94.5 18C-93.6716 18 -93 18.6716 -93 19.5Z" fill="#D5D7DA"/>
<path d="M-74 19.5C-74 20.3284 -74.6716 21 -75.5 21C-76.3284 21 -77 20.3284 -77 19.5C-77 18.6716 -76.3284 18 -75.5 18C-74.6716 18 -74 18.6716 -74 19.5Z" fill="#D5D7DA"/>
<path d="M-55 19.5C-55 20.3284 -55.6716 21 -56.5 21C-57.3284 21 -58 20.3284 -58 19.5C-58 18.6716 -57.3284 18 -56.5 18C-55.6716 18 -55 18.6716 -55 19.5Z" fill="#D5D7DA"/>
<path d="M-36 19.5C-36 20.3284 -36.6716 21 -37.5 21C-38.3284 21 -39 20.3284 -39 19.5C-39 18.6716 -38.3284 18 -37.5 18C-36.6716 18 -36 18.6716 -36 19.5Z" fill="#D5D7DA"/>
<path d="M-17 19.5C-17 20.3284 -17.6716 21 -18.5 21C-19.3284 21 -20 20.3284 -20 19.5C-20 18.6716 -19.3284 18 -18.5 18C-17.6716 18 -17 18.6716 -17 19.5Z" fill="#D5D7DA"/>
<path d="M2 19.5C2 20.3284 1.32843 21 0.5 21C-0.32843 21 -1 20.3284 -1 19.5C-1 18.6716 -0.32843 18 0.5 18C1.32843 18 2 18.6716 2 19.5Z" fill="#D5D7DA"/>
<path d="M21 19.5C21 20.3284 20.3284 21 19.5 21C18.6716 21 18 20.3284 18 19.5C18 18.6716 18.6716 18 19.5 18C20.3284 18 21 18.6716 21 19.5Z" fill="#D5D7DA"/>
<path d="M40 19.5C40 20.3284 39.3284 21 38.5 21C37.6716 21 37 20.3284 37 19.5C37 18.6716 37.6716 18 38.5 18C39.3284 18 40 18.6716 40 19.5Z" fill="#D5D7DA"/>
<path d="M59 19.5C59 20.3284 58.3284 21 57.5 21C56.6716 21 56 20.3284 56 19.5C56 18.6716 56.6716 18 57.5 18C58.3284 18 59 18.6716 59 19.5Z" fill="#D5D7DA"/>
<path d="M78 19.5C78 20.3284 77.3284 21 76.5 21C75.6716 21 75 20.3284 75 19.5C75 18.6716 75.6716 18 76.5 18C77.3284 18 78 18.6716 78 19.5Z" fill="#D5D7DA"/>
<path d="M97 19.5C97 20.3284 96.3284 21 95.5 21C94.6716 21 94 20.3284 94 19.5C94 18.6716 94.6716 18 95.5 18C96.3284 18 97 18.6716 97 19.5Z" fill="#D5D7DA"/>
<path d="M116 19.5C116 20.3284 115.328 21 114.5 21C113.672 21 113 20.3284 113 19.5C113 18.6716 113.672 18 114.5 18C115.328 18 116 18.6716 116 19.5Z" fill="#D5D7DA"/>
<path d="M135 19.5C135 20.3284 134.328 21 133.5 21C132.672 21 132 20.3284 132 19.5C132 18.6716 132.672 18 133.5 18C134.328 18 135 18.6716 135 19.5Z" fill="#D5D7DA"/>
<path d="M154 19.5C154 20.3284 153.328 21 152.5 21C151.672 21 151 20.3284 151 19.5C151 18.6716 151.672 18 152.5 18C153.328 18 154 18.6716 154 19.5Z" fill="#D5D7DA"/>
<path d="M173 19.5C173 20.3284 172.328 21 171.5 21C170.672 21 170 20.3284 170 19.5C170 18.6716 170.672 18 171.5 18C172.328 18 173 18.6716 173 19.5Z" fill="#D5D7DA"/>
<path d="M192 19.5C192 20.3284 191.328 21 190.5 21C189.672 21 189 20.3284 189 19.5C189 18.6716 189.672 18 190.5 18C191.328 18 192 18.6716 192 19.5Z" fill="#D5D7DA"/>
<path d="M211 19.5C211 20.3284 210.328 21 209.5 21C208.672 21 208 20.3284 208 19.5C208 18.6716 208.672 18 209.5 18C210.328 18 211 18.6716 211 19.5Z" fill="#D5D7DA"/>
<path d="M-112 38.5C-112 39.3284 -112.672 40 -113.5 40C-114.328 40 -115 39.3284 -115 38.5C-115 37.6716 -114.328 37 -113.5 37C-112.672 37 -112 37.6716 -112 38.5Z" fill="#D5D7DA"/>
<path d="M-93 38.5C-93 39.3284 -93.6716 40 -94.5 40C-95.3284 40 -96 39.3284 -96 38.5C-96 37.6716 -95.3284 37 -94.5 37C-93.6716 37 -93 37.6716 -93 38.5Z" fill="#D5D7DA"/>
<path d="M-74 38.5C-74 39.3284 -74.6716 40 -75.5 40C-76.3284 40 -77 39.3284 -77 38.5C-77 37.6716 -76.3284 37 -75.5 37C-74.6716 37 -74 37.6716 -74 38.5Z" fill="#D5D7DA"/>
<path d="M-55 38.5C-55 39.3284 -55.6716 40 -56.5 40C-57.3284 40 -58 39.3284 -58 38.5C-58 37.6716 -57.3284 37 -56.5 37C-55.6716 37 -55 37.6716 -55 38.5Z" fill="#D5D7DA"/>
<path d="M-36 38.5C-36 39.3284 -36.6716 40 -37.5 40C-38.3284 40 -39 39.3284 -39 38.5C-39 37.6716 -38.3284 37 -37.5 37C-36.6716 37 -36 37.6716 -36 38.5Z" fill="#D5D7DA"/>
<path d="M-17 38.5C-17 39.3284 -17.6716 40 -18.5 40C-19.3284 40 -20 39.3284 -20 38.5C-20 37.6716 -19.3284 37 -18.5 37C-17.6716 37 -17 37.6716 -17 38.5Z" fill="#D5D7DA"/>
<path d="M2 38.5C2 39.3284 1.32843 40 0.5 40C-0.32843 40 -1 39.3284 -1 38.5C-1 37.6716 -0.32843 37 0.5 37C1.32843 37 2 37.6716 2 38.5Z" fill="#D5D7DA"/>
<path d="M21 38.5C21 39.3284 20.3284 40 19.5 40C18.6716 40 18 39.3284 18 38.5C18 37.6716 18.6716 37 19.5 37C20.3284 37 21 37.6716 21 38.5Z" fill="#D5D7DA"/>
<path d="M40 38.5C40 39.3284 39.3284 40 38.5 40C37.6716 40 37 39.3284 37 38.5C37 37.6716 37.6716 37 38.5 37C39.3284 37 40 37.6716 40 38.5Z" fill="#D5D7DA"/>
<path d="M59 38.5C59 39.3284 58.3284 40 57.5 40C56.6716 40 56 39.3284 56 38.5C56 37.6716 56.6716 37 57.5 37C58.3284 37 59 37.6716 59 38.5Z" fill="#D5D7DA"/>
<path d="M78 38.5C78 39.3284 77.3284 40 76.5 40C75.6716 40 75 39.3284 75 38.5C75 37.6716 75.6716 37 76.5 37C77.3284 37 78 37.6716 78 38.5Z" fill="#D5D7DA"/>
<path d="M97 38.5C97 39.3284 96.3284 40 95.5 40C94.6716 40 94 39.3284 94 38.5C94 37.6716 94.6716 37 95.5 37C96.3284 37 97 37.6716 97 38.5Z" fill="#D5D7DA"/>
<path d="M116 38.5C116 39.3284 115.328 40 114.5 40C113.672 40 113 39.3284 113 38.5C113 37.6716 113.672 37 114.5 37C115.328 37 116 37.6716 116 38.5Z" fill="#D5D7DA"/>
<path d="M135 38.5C135 39.3284 134.328 40 133.5 40C132.672 40 132 39.3284 132 38.5C132 37.6716 132.672 37 133.5 37C134.328 37 135 37.6716 135 38.5Z" fill="#D5D7DA"/>
<path d="M154 38.5C154 39.3284 153.328 40 152.5 40C151.672 40 151 39.3284 151 38.5C151 37.6716 151.672 37 152.5 37C153.328 37 154 37.6716 154 38.5Z" fill="#D5D7DA"/>
<path d="M173 38.5C173 39.3284 172.328 40 171.5 40C170.672 40 170 39.3284 170 38.5C170 37.6716 170.672 37 171.5 37C172.328 37 173 37.6716 173 38.5Z" fill="#D5D7DA"/>
<path d="M192 38.5C192 39.3284 191.328 40 190.5 40C189.672 40 189 39.3284 189 38.5C189 37.6716 189.672 37 190.5 37C191.328 37 192 37.6716 192 38.5Z" fill="#D5D7DA"/>
<path d="M211 38.5C211 39.3284 210.328 40 209.5 40C208.672 40 208 39.3284 208 38.5C208 37.6716 208.672 37 209.5 37C210.328 37 211 37.6716 211 38.5Z" fill="#D5D7DA"/>
<path d="M-112 57.5C-112 58.3284 -112.672 59 -113.5 59C-114.328 59 -115 58.3284 -115 57.5C-115 56.6716 -114.328 56 -113.5 56C-112.672 56 -112 56.6716 -112 57.5Z" fill="#D5D7DA"/>
<path d="M-93 57.5C-93 58.3284 -93.6716 59 -94.5 59C-95.3284 59 -96 58.3284 -96 57.5C-96 56.6716 -95.3284 56 -94.5 56C-93.6716 56 -93 56.6716 -93 57.5Z" fill="#D5D7DA"/>
<path d="M-74 57.5C-74 58.3284 -74.6716 59 -75.5 59C-76.3284 59 -77 58.3284 -77 57.5C-77 56.6716 -76.3284 56 -75.5 56C-74.6716 56 -74 56.6716 -74 57.5Z" fill="#D5D7DA"/>
<path d="M-55 57.5C-55 58.3284 -55.6716 59 -56.5 59C-57.3284 59 -58 58.3284 -58 57.5C-58 56.6716 -57.3284 56 -56.5 56C-55.6716 56 -55 56.6716 -55 57.5Z" fill="#D5D7DA"/>
<path d="M-36 57.5C-36 58.3284 -36.6716 59 -37.5 59C-38.3284 59 -39 58.3284 -39 57.5C-39 56.6716 -38.3284 56 -37.5 56C-36.6716 56 -36 56.6716 -36 57.5Z" fill="#D5D7DA"/>
<path d="M-17 57.5C-17 58.3284 -17.6716 59 -18.5 59C-19.3284 59 -20 58.3284 -20 57.5C-20 56.6716 -19.3284 56 -18.5 56C-17.6716 56 -17 56.6716 -17 57.5Z" fill="#D5D7DA"/>
<path d="M2 57.5C2 58.3284 1.32843 59 0.5 59C-0.32843 59 -1 58.3284 -1 57.5C-1 56.6716 -0.32843 56 0.5 56C1.32843 56 2 56.6716 2 57.5Z" fill="#D5D7DA"/>
<path d="M21 57.5C21 58.3284 20.3284 59 19.5 59C18.6716 59 18 58.3284 18 57.5C18 56.6716 18.6716 56 19.5 56C20.3284 56 21 56.6716 21 57.5Z" fill="#D5D7DA"/>
<path d="M40 57.5C40 58.3284 39.3284 59 38.5 59C37.6716 59 37 58.3284 37 57.5C37 56.6716 37.6716 56 38.5 56C39.3284 56 40 56.6716 40 57.5Z" fill="#D5D7DA"/>
<path d="M59 57.5C59 58.3284 58.3284 59 57.5 59C56.6716 59 56 58.3284 56 57.5C56 56.6716 56.6716 56 57.5 56C58.3284 56 59 56.6716 59 57.5Z" fill="#D5D7DA"/>
<path d="M78 57.5C78 58.3284 77.3284 59 76.5 59C75.6716 59 75 58.3284 75 57.5C75 56.6716 75.6716 56 76.5 56C77.3284 56 78 56.6716 78 57.5Z" fill="#D5D7DA"/>
<path d="M97 57.5C97 58.3284 96.3284 59 95.5 59C94.6716 59 94 58.3284 94 57.5C94 56.6716 94.6716 56 95.5 56C96.3284 56 97 56.6716 97 57.5Z" fill="#D5D7DA"/>
<path d="M116 57.5C116 58.3284 115.328 59 114.5 59C113.672 59 113 58.3284 113 57.5C113 56.6716 113.672 56 114.5 56C115.328 56 116 56.6716 116 57.5Z" fill="#D5D7DA"/>
<path d="M135 57.5C135 58.3284 134.328 59 133.5 59C132.672 59 132 58.3284 132 57.5C132 56.6716 132.672 56 133.5 56C134.328 56 135 56.6716 135 57.5Z" fill="#D5D7DA"/>
<path d="M154 57.5C154 58.3284 153.328 59 152.5 59C151.672 59 151 58.3284 151 57.5C151 56.6716 151.672 56 152.5 56C153.328 56 154 56.6716 154 57.5Z" fill="#D5D7DA"/>
<path d="M173 57.5C173 58.3284 172.328 59 171.5 59C170.672 59 170 58.3284 170 57.5C170 56.6716 170.672 56 171.5 56C172.328 56 173 56.6716 173 57.5Z" fill="#D5D7DA"/>
<path d="M192 57.5C192 58.3284 191.328 59 190.5 59C189.672 59 189 58.3284 189 57.5C189 56.6716 189.672 56 190.5 56C191.328 56 192 56.6716 192 57.5Z" fill="#D5D7DA"/>
<path d="M211 57.5C211 58.3284 210.328 59 209.5 59C208.672 59 208 58.3284 208 57.5C208 56.6716 208.672 56 209.5 56C210.328 56 211 56.6716 211 57.5Z" fill="#D5D7DA"/>
<path d="M-112 76.5C-112 77.3284 -112.672 78 -113.5 78C-114.328 78 -115 77.3284 -115 76.5C-115 75.6716 -114.328 75 -113.5 75C-112.672 75 -112 75.6716 -112 76.5Z" fill="#D5D7DA"/>
<path d="M-93 76.5C-93 77.3284 -93.6716 78 -94.5 78C-95.3284 78 -96 77.3284 -96 76.5C-96 75.6716 -95.3284 75 -94.5 75C-93.6716 75 -93 75.6716 -93 76.5Z" fill="#D5D7DA"/>
<path d="M-74 76.5C-74 77.3284 -74.6716 78 -75.5 78C-76.3284 78 -77 77.3284 -77 76.5C-77 75.6716 -76.3284 75 -75.5 75C-74.6716 75 -74 75.6716 -74 76.5Z" fill="#D5D7DA"/>
<path d="M-55 76.5C-55 77.3284 -55.6716 78 -56.5 78C-57.3284 78 -58 77.3284 -58 76.5C-58 75.6716 -57.3284 75 -56.5 75C-55.6716 75 -55 75.6716 -55 76.5Z" fill="#D5D7DA"/>
<path d="M-36 76.5C-36 77.3284 -36.6716 78 -37.5 78C-38.3284 78 -39 77.3284 -39 76.5C-39 75.6716 -38.3284 75 -37.5 75C-36.6716 75 -36 75.6716 -36 76.5Z" fill="#D5D7DA"/>
<path d="M-17 76.5C-17 77.3284 -17.6716 78 -18.5 78C-19.3284 78 -20 77.3284 -20 76.5C-20 75.6716 -19.3284 75 -18.5 75C-17.6716 75 -17 75.6716 -17 76.5Z" fill="#D5D7DA"/>
<path d="M2 76.5C2 77.3284 1.32843 78 0.5 78C-0.32843 78 -1 77.3284 -1 76.5C-1 75.6716 -0.32843 75 0.5 75C1.32843 75 2 75.6716 2 76.5Z" fill="#D5D7DA"/>
<path d="M21 76.5C21 77.3284 20.3284 78 19.5 78C18.6716 78 18 77.3284 18 76.5C18 75.6716 18.6716 75 19.5 75C20.3284 75 21 75.6716 21 76.5Z" fill="#D5D7DA"/>
<path d="M40 76.5C40 77.3284 39.3284 78 38.5 78C37.6716 78 37 77.3284 37 76.5C37 75.6716 37.6716 75 38.5 75C39.3284 75 40 75.6716 40 76.5Z" fill="#D5D7DA"/>
<path d="M59 76.5C59 77.3284 58.3284 78 57.5 78C56.6716 78 56 77.3284 56 76.5C56 75.6716 56.6716 75 57.5 75C58.3284 75 59 75.6716 59 76.5Z" fill="#D5D7DA"/>
<path d="M78 76.5C78 77.3284 77.3284 78 76.5 78C75.6716 78 75 77.3284 75 76.5C75 75.6716 75.6716 75 76.5 75C77.3284 75 78 75.6716 78 76.5Z" fill="#D5D7DA"/>
<path d="M97 76.5C97 77.3284 96.3284 78 95.5 78C94.6716 78 94 77.3284 94 76.5C94 75.6716 94.6716 75 95.5 75C96.3284 75 97 75.6716 97 76.5Z" fill="#D5D7DA"/>
<path d="M116 76.5C116 77.3284 115.328 78 114.5 78C113.672 78 113 77.3284 113 76.5C113 75.6716 113.672 75 114.5 75C115.328 75 116 75.6716 116 76.5Z" fill="#D5D7DA"/>
<path d="M135 76.5C135 77.3284 134.328 78 133.5 78C132.672 78 132 77.3284 132 76.5C132 75.6716 132.672 75 133.5 75C134.328 75 135 75.6716 135 76.5Z" fill="#D5D7DA"/>
<path d="M154 76.5C154 77.3284 153.328 78 152.5 78C151.672 78 151 77.3284 151 76.5C151 75.6716 151.672 75 152.5 75C153.328 75 154 75.6716 154 76.5Z" fill="#D5D7DA"/>
<path d="M173 76.5C173 77.3284 172.328 78 171.5 78C170.672 78 170 77.3284 170 76.5C170 75.6716 170.672 75 171.5 75C172.328 75 173 75.6716 173 76.5Z" fill="#D5D7DA"/>
<path d="M192 76.5C192 77.3284 191.328 78 190.5 78C189.672 78 189 77.3284 189 76.5C189 75.6716 189.672 75 190.5 75C191.328 75 192 75.6716 192 76.5Z" fill="#D5D7DA"/>
<path d="M211 76.5C211 77.3284 210.328 78 209.5 78C208.672 78 208 77.3284 208 76.5C208 75.6716 208.672 75 209.5 75C210.328 75 211 75.6716 211 76.5Z" fill="#D5D7DA"/>
<path d="M-112 95.5C-112 96.3284 -112.672 97 -113.5 97C-114.328 97 -115 96.3284 -115 95.5C-115 94.6716 -114.328 94 -113.5 94C-112.672 94 -112 94.6716 -112 95.5Z" fill="#D5D7DA"/>
<path d="M-93 95.5C-93 96.3284 -93.6716 97 -94.5 97C-95.3284 97 -96 96.3284 -96 95.5C-96 94.6716 -95.3284 94 -94.5 94C-93.6716 94 -93 94.6716 -93 95.5Z" fill="#D5D7DA"/>
<path d="M-74 95.5C-74 96.3284 -74.6716 97 -75.5 97C-76.3284 97 -77 96.3284 -77 95.5C-77 94.6716 -76.3284 94 -75.5 94C-74.6716 94 -74 94.6716 -74 95.5Z" fill="#D5D7DA"/>
<path d="M-55 95.5C-55 96.3284 -55.6716 97 -56.5 97C-57.3284 97 -58 96.3284 -58 95.5C-58 94.6716 -57.3284 94 -56.5 94C-55.6716 94 -55 94.6716 -55 95.5Z" fill="#D5D7DA"/>
<path d="M-36 95.5C-36 96.3284 -36.6716 97 -37.5 97C-38.3284 97 -39 96.3284 -39 95.5C-39 94.6716 -38.3284 94 -37.5 94C-36.6716 94 -36 94.6716 -36 95.5Z" fill="#D5D7DA"/>
<path d="M-17 95.5C-17 96.3284 -17.6716 97 -18.5 97C-19.3284 97 -20 96.3284 -20 95.5C-20 94.6716 -19.3284 94 -18.5 94C-17.6716 94 -17 94.6716 -17 95.5Z" fill="#D5D7DA"/>
<path d="M2 95.5C2 96.3284 1.32843 97 0.5 97C-0.32843 97 -1 96.3284 -1 95.5C-1 94.6716 -0.32843 94 0.5 94C1.32843 94 2 94.6716 2 95.5Z" fill="#D5D7DA"/>
<path d="M21 95.5C21 96.3284 20.3284 97 19.5 97C18.6716 97 18 96.3284 18 95.5C18 94.6716 18.6716 94 19.5 94C20.3284 94 21 94.6716 21 95.5Z" fill="#D5D7DA"/>
<path d="M40 95.5C40 96.3284 39.3284 97 38.5 97C37.6716 97 37 96.3284 37 95.5C37 94.6716 37.6716 94 38.5 94C39.3284 94 40 94.6716 40 95.5Z" fill="#D5D7DA"/>
<path d="M59 95.5C59 96.3284 58.3284 97 57.5 97C56.6716 97 56 96.3284 56 95.5C56 94.6716 56.6716 94 57.5 94C58.3284 94 59 94.6716 59 95.5Z" fill="#D5D7DA"/>
<path d="M78 95.5C78 96.3284 77.3284 97 76.5 97C75.6716 97 75 96.3284 75 95.5C75 94.6716 75.6716 94 76.5 94C77.3284 94 78 94.6716 78 95.5Z" fill="#D5D7DA"/>
<path d="M97 95.5C97 96.3284 96.3284 97 95.5 97C94.6716 97 94 96.3284 94 95.5C94 94.6716 94.6716 94 95.5 94C96.3284 94 97 94.6716 97 95.5Z" fill="#D5D7DA"/>
<path d="M116 95.5C116 96.3284 115.328 97 114.5 97C113.672 97 113 96.3284 113 95.5C113 94.6716 113.672 94 114.5 94C115.328 94 116 94.6716 116 95.5Z" fill="#D5D7DA"/>
<path d="M135 95.5C135 96.3284 134.328 97 133.5 97C132.672 97 132 96.3284 132 95.5C132 94.6716 132.672 94 133.5 94C134.328 94 135 94.6716 135 95.5Z" fill="#D5D7DA"/>
<path d="M154 95.5C154 96.3284 153.328 97 152.5 97C151.672 97 151 96.3284 151 95.5C151 94.6716 151.672 94 152.5 94C153.328 94 154 94.6716 154 95.5Z" fill="#D5D7DA"/>
<path d="M173 95.5C173 96.3284 172.328 97 171.5 97C170.672 97 170 96.3284 170 95.5C170 94.6716 170.672 94 171.5 94C172.328 94 173 94.6716 173 95.5Z" fill="#D5D7DA"/>
<path d="M192 95.5C192 96.3284 191.328 97 190.5 97C189.672 97 189 96.3284 189 95.5C189 94.6716 189.672 94 190.5 94C191.328 94 192 94.6716 192 95.5Z" fill="#D5D7DA"/>
<path d="M211 95.5C211 96.3284 210.328 97 209.5 97C208.672 97 208 96.3284 208 95.5C208 94.6716 208.672 94 209.5 94C210.328 94 211 94.6716 211 95.5Z" fill="#D5D7DA"/>
<path d="M-112 114.5C-112 115.328 -112.672 116 -113.5 116C-114.328 116 -115 115.328 -115 114.5C-115 113.672 -114.328 113 -113.5 113C-112.672 113 -112 113.672 -112 114.5Z" fill="#D5D7DA"/>
<path d="M-93 114.5C-93 115.328 -93.6716 116 -94.5 116C-95.3284 116 -96 115.328 -96 114.5C-96 113.672 -95.3284 113 -94.5 113C-93.6716 113 -93 113.672 -93 114.5Z" fill="#D5D7DA"/>
<path d="M-74 114.5C-74 115.328 -74.6716 116 -75.5 116C-76.3284 116 -77 115.328 -77 114.5C-77 113.672 -76.3284 113 -75.5 113C-74.6716 113 -74 113.672 -74 114.5Z" fill="#D5D7DA"/>
<path d="M-55 114.5C-55 115.328 -55.6716 116 -56.5 116C-57.3284 116 -58 115.328 -58 114.5C-58 113.672 -57.3284 113 -56.5 113C-55.6716 113 -55 113.672 -55 114.5Z" fill="#D5D7DA"/>
<path d="M-36 114.5C-36 115.328 -36.6716 116 -37.5 116C-38.3284 116 -39 115.328 -39 114.5C-39 113.672 -38.3284 113 -37.5 113C-36.6716 113 -36 113.672 -36 114.5Z" fill="#D5D7DA"/>
<path d="M-17 114.5C-17 115.328 -17.6716 116 -18.5 116C-19.3284 116 -20 115.328 -20 114.5C-20 113.672 -19.3284 113 -18.5 113C-17.6716 113 -17 113.672 -17 114.5Z" fill="#D5D7DA"/>
<path d="M2 114.5C2 115.328 1.32843 116 0.5 116C-0.32843 116 -1 115.328 -1 114.5C-1 113.672 -0.32843 113 0.5 113C1.32843 113 2 113.672 2 114.5Z" fill="#D5D7DA"/>
<path d="M21 114.5C21 115.328 20.3284 116 19.5 116C18.6716 116 18 115.328 18 114.5C18 113.672 18.6716 113 19.5 113C20.3284 113 21 113.672 21 114.5Z" fill="#D5D7DA"/>
<path d="M40 114.5C40 115.328 39.3284 116 38.5 116C37.6716 116 37 115.328 37 114.5C37 113.672 37.6716 113 38.5 113C39.3284 113 40 113.672 40 114.5Z" fill="#D5D7DA"/>
<path d="M59 114.5C59 115.328 58.3284 116 57.5 116C56.6716 116 56 115.328 56 114.5C56 113.672 56.6716 113 57.5 113C58.3284 113 59 113.672 59 114.5Z" fill="#D5D7DA"/>
<path d="M78 114.5C78 115.328 77.3284 116 76.5 116C75.6716 116 75 115.328 75 114.5C75 113.672 75.6716 113 76.5 113C77.3284 113 78 113.672 78 114.5Z" fill="#D5D7DA"/>
<path d="M97 114.5C97 115.328 96.3284 116 95.5 116C94.6716 116 94 115.328 94 114.5C94 113.672 94.6716 113 95.5 113C96.3284 113 97 113.672 97 114.5Z" fill="#D5D7DA"/>
<path d="M116 114.5C116 115.328 115.328 116 114.5 116C113.672 116 113 115.328 113 114.5C113 113.672 113.672 113 114.5 113C115.328 113 116 113.672 116 114.5Z" fill="#D5D7DA"/>
<path d="M135 114.5C135 115.328 134.328 116 133.5 116C132.672 116 132 115.328 132 114.5C132 113.672 132.672 113 133.5 113C134.328 113 135 113.672 135 114.5Z" fill="#D5D7DA"/>
<path d="M154 114.5C154 115.328 153.328 116 152.5 116C151.672 116 151 115.328 151 114.5C151 113.672 151.672 113 152.5 113C153.328 113 154 113.672 154 114.5Z" fill="#D5D7DA"/>
<path d="M173 114.5C173 115.328 172.328 116 171.5 116C170.672 116 170 115.328 170 114.5C170 113.672 170.672 113 171.5 113C172.328 113 173 113.672 173 114.5Z" fill="#D5D7DA"/>
<path d="M192 114.5C192 115.328 191.328 116 190.5 116C189.672 116 189 115.328 189 114.5C189 113.672 189.672 113 190.5 113C191.328 113 192 113.672 192 114.5Z" fill="#D5D7DA"/>
<path d="M211 114.5C211 115.328 210.328 116 209.5 116C208.672 116 208 115.328 208 114.5C208 113.672 208.672 113 209.5 113C210.328 113 211 113.672 211 114.5Z" fill="#D5D7DA"/>
<path d="M-112 133.5C-112 134.328 -112.672 135 -113.5 135C-114.328 135 -115 134.328 -115 133.5C-115 132.672 -114.328 132 -113.5 132C-112.672 132 -112 132.672 -112 133.5Z" fill="#D5D7DA"/>
<path d="M-93 133.5C-93 134.328 -93.6716 135 -94.5 135C-95.3284 135 -96 134.328 -96 133.5C-96 132.672 -95.3284 132 -94.5 132C-93.6716 132 -93 132.672 -93 133.5Z" fill="#D5D7DA"/>
<path d="M-74 133.5C-74 134.328 -74.6716 135 -75.5 135C-76.3284 135 -77 134.328 -77 133.5C-77 132.672 -76.3284 132 -75.5 132C-74.6716 132 -74 132.672 -74 133.5Z" fill="#D5D7DA"/>
<path d="M-55 133.5C-55 134.328 -55.6716 135 -56.5 135C-57.3284 135 -58 134.328 -58 133.5C-58 132.672 -57.3284 132 -56.5 132C-55.6716 132 -55 132.672 -55 133.5Z" fill="#D5D7DA"/>
<path d="M-36 133.5C-36 134.328 -36.6716 135 -37.5 135C-38.3284 135 -39 134.328 -39 133.5C-39 132.672 -38.3284 132 -37.5 132C-36.6716 132 -36 132.672 -36 133.5Z" fill="#D5D7DA"/>
<path d="M-17 133.5C-17 134.328 -17.6716 135 -18.5 135C-19.3284 135 -20 134.328 -20 133.5C-20 132.672 -19.3284 132 -18.5 132C-17.6716 132 -17 132.672 -17 133.5Z" fill="#D5D7DA"/>
<path d="M2 133.5C2 134.328 1.32843 135 0.5 135C-0.32843 135 -1 134.328 -1 133.5C-1 132.672 -0.32843 132 0.5 132C1.32843 132 2 132.672 2 133.5Z" fill="#D5D7DA"/>
<path d="M21 133.5C21 134.328 20.3284 135 19.5 135C18.6716 135 18 134.328 18 133.5C18 132.672 18.6716 132 19.5 132C20.3284 132 21 132.672 21 133.5Z" fill="#D5D7DA"/>
<path d="M40 133.5C40 134.328 39.3284 135 38.5 135C37.6716 135 37 134.328 37 133.5C37 132.672 37.6716 132 38.5 132C39.3284 132 40 132.672 40 133.5Z" fill="#D5D7DA"/>
<path d="M59 133.5C59 134.328 58.3284 135 57.5 135C56.6716 135 56 134.328 56 133.5C56 132.672 56.6716 132 57.5 132C58.3284 132 59 132.672 59 133.5Z" fill="#D5D7DA"/>
<path d="M78 133.5C78 134.328 77.3284 135 76.5 135C75.6716 135 75 134.328 75 133.5C75 132.672 75.6716 132 76.5 132C77.3284 132 78 132.672 78 133.5Z" fill="#D5D7DA"/>
<path d="M97 133.5C97 134.328 96.3284 135 95.5 135C94.6716 135 94 134.328 94 133.5C94 132.672 94.6716 132 95.5 132C96.3284 132 97 132.672 97 133.5Z" fill="#D5D7DA"/>
<path d="M116 133.5C116 134.328 115.328 135 114.5 135C113.672 135 113 134.328 113 133.5C113 132.672 113.672 132 114.5 132C115.328 132 116 132.672 116 133.5Z" fill="#D5D7DA"/>
<path d="M135 133.5C135 134.328 134.328 135 133.5 135C132.672 135 132 134.328 132 133.5C132 132.672 132.672 132 133.5 132C134.328 132 135 132.672 135 133.5Z" fill="#D5D7DA"/>
<path d="M154 133.5C154 134.328 153.328 135 152.5 135C151.672 135 151 134.328 151 133.5C151 132.672 151.672 132 152.5 132C153.328 132 154 132.672 154 133.5Z" fill="#D5D7DA"/>
<path d="M173 133.5C173 134.328 172.328 135 171.5 135C170.672 135 170 134.328 170 133.5C170 132.672 170.672 132 171.5 132C172.328 132 173 132.672 173 133.5Z" fill="#D5D7DA"/>
<path d="M192 133.5C192 134.328 191.328 135 190.5 135C189.672 135 189 134.328 189 133.5C189 132.672 189.672 132 190.5 132C191.328 132 192 132.672 192 133.5Z" fill="#D5D7DA"/>
<path d="M211 133.5C211 134.328 210.328 135 209.5 135C208.672 135 208 134.328 208 133.5C208 132.672 208.672 132 209.5 132C210.328 132 211 132.672 211 133.5Z" fill="#D5D7DA"/>
<path d="M-112 152.5C-112 153.328 -112.672 154 -113.5 154C-114.328 154 -115 153.328 -115 152.5C-115 151.672 -114.328 151 -113.5 151C-112.672 151 -112 151.672 -112 152.5Z" fill="#D5D7DA"/>
<path d="M-93 152.5C-93 153.328 -93.6716 154 -94.5 154C-95.3284 154 -96 153.328 -96 152.5C-96 151.672 -95.3284 151 -94.5 151C-93.6716 151 -93 151.672 -93 152.5Z" fill="#D5D7DA"/>
<path d="M-74 152.5C-74 153.328 -74.6716 154 -75.5 154C-76.3284 154 -77 153.328 -77 152.5C-77 151.672 -76.3284 151 -75.5 151C-74.6716 151 -74 151.672 -74 152.5Z" fill="#D5D7DA"/>
<path d="M-55 152.5C-55 153.328 -55.6716 154 -56.5 154C-57.3284 154 -58 153.328 -58 152.5C-58 151.672 -57.3284 151 -56.5 151C-55.6716 151 -55 151.672 -55 152.5Z" fill="#D5D7DA"/>
<path d="M-36 152.5C-36 153.328 -36.6716 154 -37.5 154C-38.3284 154 -39 153.328 -39 152.5C-39 151.672 -38.3284 151 -37.5 151C-36.6716 151 -36 151.672 -36 152.5Z" fill="#D5D7DA"/>
<path d="M-17 152.5C-17 153.328 -17.6716 154 -18.5 154C-19.3284 154 -20 153.328 -20 152.5C-20 151.672 -19.3284 151 -18.5 151C-17.6716 151 -17 151.672 -17 152.5Z" fill="#D5D7DA"/>
<path d="M2 152.5C2 153.328 1.32843 154 0.5 154C-0.32843 154 -1 153.328 -1 152.5C-1 151.672 -0.32843 151 0.5 151C1.32843 151 2 151.672 2 152.5Z" fill="#D5D7DA"/>
<path d="M21 152.5C21 153.328 20.3284 154 19.5 154C18.6716 154 18 153.328 18 152.5C18 151.672 18.6716 151 19.5 151C20.3284 151 21 151.672 21 152.5Z" fill="#D5D7DA"/>
<path d="M40 152.5C40 153.328 39.3284 154 38.5 154C37.6716 154 37 153.328 37 152.5C37 151.672 37.6716 151 38.5 151C39.3284 151 40 151.672 40 152.5Z" fill="#D5D7DA"/>
<path d="M59 152.5C59 153.328 58.3284 154 57.5 154C56.6716 154 56 153.328 56 152.5C56 151.672 56.6716 151 57.5 151C58.3284 151 59 151.672 59 152.5Z" fill="#D5D7DA"/>
<path d="M78 152.5C78 153.328 77.3284 154 76.5 154C75.6716 154 75 153.328 75 152.5C75 151.672 75.6716 151 76.5 151C77.3284 151 78 151.672 78 152.5Z" fill="#D5D7DA"/>
<path d="M97 152.5C97 153.328 96.3284 154 95.5 154C94.6716 154 94 153.328 94 152.5C94 151.672 94.6716 151 95.5 151C96.3284 151 97 151.672 97 152.5Z" fill="#D5D7DA"/>
<path d="M116 152.5C116 153.328 115.328 154 114.5 154C113.672 154 113 153.328 113 152.5C113 151.672 113.672 151 114.5 151C115.328 151 116 151.672 116 152.5Z" fill="#D5D7DA"/>
<path d="M135 152.5C135 153.328 134.328 154 133.5 154C132.672 154 132 153.328 132 152.5C132 151.672 132.672 151 133.5 151C134.328 151 135 151.672 135 152.5Z" fill="#D5D7DA"/>
<path d="M154 152.5C154 153.328 153.328 154 152.5 154C151.672 154 151 153.328 151 152.5C151 151.672 151.672 151 152.5 151C153.328 151 154 151.672 154 152.5Z" fill="#D5D7DA"/>
<path d="M173 152.5C173 153.328 172.328 154 171.5 154C170.672 154 170 153.328 170 152.5C170 151.672 170.672 151 171.5 151C172.328 151 173 151.672 173 152.5Z" fill="#D5D7DA"/>
<path d="M192 152.5C192 153.328 191.328 154 190.5 154C189.672 154 189 153.328 189 152.5C189 151.672 189.672 151 190.5 151C191.328 151 192 151.672 192 152.5Z" fill="#D5D7DA"/>
<path d="M211 152.5C211 153.328 210.328 154 209.5 154C208.672 154 208 153.328 208 152.5C208 151.672 208.672 151 209.5 151C210.328 151 211 151.672 211 152.5Z" fill="#D5D7DA"/>
<path d="M-112 171.5C-112 172.328 -112.672 173 -113.5 173C-114.328 173 -115 172.328 -115 171.5C-115 170.672 -114.328 170 -113.5 170C-112.672 170 -112 170.672 -112 171.5Z" fill="#D5D7DA"/>
<path d="M-93 171.5C-93 172.328 -93.6716 173 -94.5 173C-95.3284 173 -96 172.328 -96 171.5C-96 170.672 -95.3284 170 -94.5 170C-93.6716 170 -93 170.672 -93 171.5Z" fill="#D5D7DA"/>
<path d="M-74 171.5C-74 172.328 -74.6716 173 -75.5 173C-76.3284 173 -77 172.328 -77 171.5C-77 170.672 -76.3284 170 -75.5 170C-74.6716 170 -74 170.672 -74 171.5Z" fill="#D5D7DA"/>
<path d="M-55 171.5C-55 172.328 -55.6716 173 -56.5 173C-57.3284 173 -58 172.328 -58 171.5C-58 170.672 -57.3284 170 -56.5 170C-55.6716 170 -55 170.672 -55 171.5Z" fill="#D5D7DA"/>
<path d="M-36 171.5C-36 172.328 -36.6716 173 -37.5 173C-38.3284 173 -39 172.328 -39 171.5C-39 170.672 -38.3284 170 -37.5 170C-36.6716 170 -36 170.672 -36 171.5Z" fill="#D5D7DA"/>
<path d="M-17 171.5C-17 172.328 -17.6716 173 -18.5 173C-19.3284 173 -20 172.328 -20 171.5C-20 170.672 -19.3284 170 -18.5 170C-17.6716 170 -17 170.672 -17 171.5Z" fill="#D5D7DA"/>
<path d="M2 171.5C2 172.328 1.32843 173 0.5 173C-0.32843 173 -1 172.328 -1 171.5C-1 170.672 -0.32843 170 0.5 170C1.32843 170 2 170.672 2 171.5Z" fill="#D5D7DA"/>
<path d="M21 171.5C21 172.328 20.3284 173 19.5 173C18.6716 173 18 172.328 18 171.5C18 170.672 18.6716 170 19.5 170C20.3284 170 21 170.672 21 171.5Z" fill="#D5D7DA"/>
<path d="M40 171.5C40 172.328 39.3284 173 38.5 173C37.6716 173 37 172.328 37 171.5C37 170.672 37.6716 170 38.5 170C39.3284 170 40 170.672 40 171.5Z" fill="#D5D7DA"/>
<path d="M59 171.5C59 172.328 58.3284 173 57.5 173C56.6716 173 56 172.328 56 171.5C56 170.672 56.6716 170 57.5 170C58.3284 170 59 170.672 59 171.5Z" fill="#D5D7DA"/>
<path d="M78 171.5C78 172.328 77.3284 173 76.5 173C75.6716 173 75 172.328 75 171.5C75 170.672 75.6716 170 76.5 170C77.3284 170 78 170.672 78 171.5Z" fill="#D5D7DA"/>
<path d="M97 171.5C97 172.328 96.3284 173 95.5 173C94.6716 173 94 172.328 94 171.5C94 170.672 94.6716 170 95.5 170C96.3284 170 97 170.672 97 171.5Z" fill="#D5D7DA"/>
<path d="M116 171.5C116 172.328 115.328 173 114.5 173C113.672 173 113 172.328 113 171.5C113 170.672 113.672 170 114.5 170C115.328 170 116 170.672 116 171.5Z" fill="#D5D7DA"/>
<path d="M135 171.5C135 172.328 134.328 173 133.5 173C132.672 173 132 172.328 132 171.5C132 170.672 132.672 170 133.5 170C134.328 170 135 170.672 135 171.5Z" fill="#D5D7DA"/>
<path d="M154 171.5C154 172.328 153.328 173 152.5 173C151.672 173 151 172.328 151 171.5C151 170.672 151.672 170 152.5 170C153.328 170 154 170.672 154 171.5Z" fill="#D5D7DA"/>
<path d="M173 171.5C173 172.328 172.328 173 171.5 173C170.672 173 170 172.328 170 171.5C170 170.672 170.672 170 171.5 170C172.328 170 173 170.672 173 171.5Z" fill="#D5D7DA"/>
<path d="M192 171.5C192 172.328 191.328 173 190.5 173C189.672 173 189 172.328 189 171.5C189 170.672 189.672 170 190.5 170C191.328 170 192 170.672 192 171.5Z" fill="#D5D7DA"/>
<path d="M211 171.5C211 172.328 210.328 173 209.5 173C208.672 173 208 172.328 208 171.5C208 170.672 208.672 170 209.5 170C210.328 170 211 170.672 211 171.5Z" fill="#D5D7DA"/>
<path d="M-112 190.5C-112 191.328 -112.672 192 -113.5 192C-114.328 192 -115 191.328 -115 190.5C-115 189.672 -114.328 189 -113.5 189C-112.672 189 -112 189.672 -112 190.5Z" fill="#D5D7DA"/>
<path d="M-93 190.5C-93 191.328 -93.6716 192 -94.5 192C-95.3284 192 -96 191.328 -96 190.5C-96 189.672 -95.3284 189 -94.5 189C-93.6716 189 -93 189.672 -93 190.5Z" fill="#D5D7DA"/>
<path d="M-74 190.5C-74 191.328 -74.6716 192 -75.5 192C-76.3284 192 -77 191.328 -77 190.5C-77 189.672 -76.3284 189 -75.5 189C-74.6716 189 -74 189.672 -74 190.5Z" fill="#D5D7DA"/>
<path d="M-55 190.5C-55 191.328 -55.6716 192 -56.5 192C-57.3284 192 -58 191.328 -58 190.5C-58 189.672 -57.3284 189 -56.5 189C-55.6716 189 -55 189.672 -55 190.5Z" fill="#D5D7DA"/>
<path d="M-36 190.5C-36 191.328 -36.6716 192 -37.5 192C-38.3284 192 -39 191.328 -39 190.5C-39 189.672 -38.3284 189 -37.5 189C-36.6716 189 -36 189.672 -36 190.5Z" fill="#D5D7DA"/>
<path d="M-17 190.5C-17 191.328 -17.6716 192 -18.5 192C-19.3284 192 -20 191.328 -20 190.5C-20 189.672 -19.3284 189 -18.5 189C-17.6716 189 -17 189.672 -17 190.5Z" fill="#D5D7DA"/>
<path d="M2 190.5C2 191.328 1.32843 192 0.5 192C-0.32843 192 -1 191.328 -1 190.5C-1 189.672 -0.32843 189 0.5 189C1.32843 189 2 189.672 2 190.5Z" fill="#D5D7DA"/>
<path d="M21 190.5C21 191.328 20.3284 192 19.5 192C18.6716 192 18 191.328 18 190.5C18 189.672 18.6716 189 19.5 189C20.3284 189 21 189.672 21 190.5Z" fill="#D5D7DA"/>
<path d="M40 190.5C40 191.328 39.3284 192 38.5 192C37.6716 192 37 191.328 37 190.5C37 189.672 37.6716 189 38.5 189C39.3284 189 40 189.672 40 190.5Z" fill="#D5D7DA"/>
<path d="M59 190.5C59 191.328 58.3284 192 57.5 192C56.6716 192 56 191.328 56 190.5C56 189.672 56.6716 189 57.5 189C58.3284 189 59 189.672 59 190.5Z" fill="#D5D7DA"/>
<path d="M78 190.5C78 191.328 77.3284 192 76.5 192C75.6716 192 75 191.328 75 190.5C75 189.672 75.6716 189 76.5 189C77.3284 189 78 189.672 78 190.5Z" fill="#D5D7DA"/>
<path d="M97 190.5C97 191.328 96.3284 192 95.5 192C94.6716 192 94 191.328 94 190.5C94 189.672 94.6716 189 95.5 189C96.3284 189 97 189.672 97 190.5Z" fill="#D5D7DA"/>
<path d="M116 190.5C116 191.328 115.328 192 114.5 192C113.672 192 113 191.328 113 190.5C113 189.672 113.672 189 114.5 189C115.328 189 116 189.672 116 190.5Z" fill="#D5D7DA"/>
<path d="M135 190.5C135 191.328 134.328 192 133.5 192C132.672 192 132 191.328 132 190.5C132 189.672 132.672 189 133.5 189C134.328 189 135 189.672 135 190.5Z" fill="#D5D7DA"/>
<path d="M154 190.5C154 191.328 153.328 192 152.5 192C151.672 192 151 191.328 151 190.5C151 189.672 151.672 189 152.5 189C153.328 189 154 189.672 154 190.5Z" fill="#D5D7DA"/>
<path d="M173 190.5C173 191.328 172.328 192 171.5 192C170.672 192 170 191.328 170 190.5C170 189.672 170.672 189 171.5 189C172.328 189 173 189.672 173 190.5Z" fill="#D5D7DA"/>
<path d="M192 190.5C192 191.328 191.328 192 190.5 192C189.672 192 189 191.328 189 190.5C189 189.672 189.672 189 190.5 189C191.328 189 192 189.672 192 190.5Z" fill="#D5D7DA"/>
<path d="M211 190.5C211 191.328 210.328 192 209.5 192C208.672 192 208 191.328 208 190.5C208 189.672 208.672 189 209.5 189C210.328 189 211 189.672 211 190.5Z" fill="#D5D7DA"/>
<path d="M-112 209.5C-112 210.328 -112.672 211 -113.5 211C-114.328 211 -115 210.328 -115 209.5C-115 208.672 -114.328 208 -113.5 208C-112.672 208 -112 208.672 -112 209.5Z" fill="#D5D7DA"/>
<path d="M-93 209.5C-93 210.328 -93.6716 211 -94.5 211C-95.3284 211 -96 210.328 -96 209.5C-96 208.672 -95.3284 208 -94.5 208C-93.6716 208 -93 208.672 -93 209.5Z" fill="#D5D7DA"/>
<path d="M-74 209.5C-74 210.328 -74.6716 211 -75.5 211C-76.3284 211 -77 210.328 -77 209.5C-77 208.672 -76.3284 208 -75.5 208C-74.6716 208 -74 208.672 -74 209.5Z" fill="#D5D7DA"/>
<path d="M-55 209.5C-55 210.328 -55.6716 211 -56.5 211C-57.3284 211 -58 210.328 -58 209.5C-58 208.672 -57.3284 208 -56.5 208C-55.6716 208 -55 208.672 -55 209.5Z" fill="#D5D7DA"/>
<path d="M-36 209.5C-36 210.328 -36.6716 211 -37.5 211C-38.3284 211 -39 210.328 -39 209.5C-39 208.672 -38.3284 208 -37.5 208C-36.6716 208 -36 208.672 -36 209.5Z" fill="#D5D7DA"/>
<path d="M-17 209.5C-17 210.328 -17.6716 211 -18.5 211C-19.3284 211 -20 210.328 -20 209.5C-20 208.672 -19.3284 208 -18.5 208C-17.6716 208 -17 208.672 -17 209.5Z" fill="#D5D7DA"/>
<path d="M2 209.5C2 210.328 1.32843 211 0.5 211C-0.32843 211 -1 210.328 -1 209.5C-1 208.672 -0.32843 208 0.5 208C1.32843 208 2 208.672 2 209.5Z" fill="#D5D7DA"/>
<path d="M21 209.5C21 210.328 20.3284 211 19.5 211C18.6716 211 18 210.328 18 209.5C18 208.672 18.6716 208 19.5 208C20.3284 208 21 208.672 21 209.5Z" fill="#D5D7DA"/>
<path d="M40 209.5C40 210.328 39.3284 211 38.5 211C37.6716 211 37 210.328 37 209.5C37 208.672 37.6716 208 38.5 208C39.3284 208 40 208.672 40 209.5Z" fill="#D5D7DA"/>
<path d="M59 209.5C59 210.328 58.3284 211 57.5 211C56.6716 211 56 210.328 56 209.5C56 208.672 56.6716 208 57.5 208C58.3284 208 59 208.672 59 209.5Z" fill="#D5D7DA"/>
<path d="M78 209.5C78 210.328 77.3284 211 76.5 211C75.6716 211 75 210.328 75 209.5C75 208.672 75.6716 208 76.5 208C77.3284 208 78 208.672 78 209.5Z" fill="#D5D7DA"/>
<path d="M97 209.5C97 210.328 96.3284 211 95.5 211C94.6716 211 94 210.328 94 209.5C94 208.672 94.6716 208 95.5 208C96.3284 208 97 208.672 97 209.5Z" fill="#D5D7DA"/>
<path d="M116 209.5C116 210.328 115.328 211 114.5 211C113.672 211 113 210.328 113 209.5C113 208.672 113.672 208 114.5 208C115.328 208 116 208.672 116 209.5Z" fill="#D5D7DA"/>
<path d="M135 209.5C135 210.328 134.328 211 133.5 211C132.672 211 132 210.328 132 209.5C132 208.672 132.672 208 133.5 208C134.328 208 135 208.672 135 209.5Z" fill="#D5D7DA"/>
<path d="M154 209.5C154 210.328 153.328 211 152.5 211C151.672 211 151 210.328 151 209.5C151 208.672 151.672 208 152.5 208C153.328 208 154 208.672 154 209.5Z" fill="#D5D7DA"/>
<path d="M173 209.5C173 210.328 172.328 211 171.5 211C170.672 211 170 210.328 170 209.5C170 208.672 170.672 208 171.5 208C172.328 208 173 208.672 173 209.5Z" fill="#D5D7DA"/>
<path d="M192 209.5C192 210.328 191.328 211 190.5 211C189.672 211 189 210.328 189 209.5C189 208.672 189.672 208 190.5 208C191.328 208 192 208.672 192 209.5Z" fill="#D5D7DA"/>
<path d="M211 209.5C211 210.328 210.328 211 209.5 211C208.672 211 208 210.328 208 209.5C208 208.672 208.672 208 209.5 208C210.328 208 211 208.672 211 209.5Z" fill="#D5D7DA"/>
</g>
<defs>
<linearGradient id="paint0_linear_452_3756" x1="168" y1="0" x2="168" y2="336" gradientUnits="userSpaceOnUse">
<stop/>
<stop offset="0.991144" stop-opacity="0"/>
</linearGradient>
</defs>
</svg>
