<svg width="60" height="60" viewBox="0 0 60 60" fill="none" xmlns="http://www.w3.org/2000/svg">
<path d="M29 2.57735C29.6188 2.22008 30.3812 2.22008 31 2.57735L53.2487 15.4226C53.8675 15.7799 54.2487 16.4402 54.2487 17.1547V42.8453C54.2487 43.5598 53.8675 44.2201 53.2487 44.5774L31 57.4226C30.3812 57.7799 29.6188 57.7799 29 57.4226L6.75129 44.5774C6.13249 44.2201 5.75129 43.5598 5.75129 42.8453V17.1547C5.75129 16.4402 6.13249 15.7799 6.75129 15.4226L29 2.57735Z" fill="#06AED4"/>
<path d="M23.152 41V19.1818H31.5043C33.081 19.1818 34.3913 19.4304 35.4354 19.9276C36.4865 20.4176 37.2713 21.0888 37.7898 21.9411C38.3153 22.7933 38.5781 23.7592 38.5781 24.8388C38.5781 25.7266 38.4077 26.4865 38.0668 27.1186C37.7259 27.7436 37.2678 28.2514 36.6925 28.642C36.1172 29.0327 35.4744 29.3132 34.7642 29.4837V29.6967C35.5384 29.7393 36.2805 29.9773 36.9908 30.4105C37.7081 30.8366 38.294 31.4403 38.7486 32.2216C39.2031 33.0028 39.4304 33.9474 39.4304 35.0554C39.4304 36.1847 39.157 37.2003 38.6101 38.1023C38.0632 38.9972 37.2393 39.7038 36.1385 40.2223C35.0376 40.7408 33.6527 41 31.9837 41H23.152ZM27.1044 37.6974H31.3551C32.7898 37.6974 33.8232 37.424 34.4553 36.8771C35.0945 36.3232 35.4141 35.6129 35.4141 34.7464C35.4141 34.1001 35.2543 33.5178 34.9347 32.9993C34.6151 32.4737 34.1605 32.0618 33.571 31.7635C32.9815 31.4581 32.2784 31.3054 31.4616 31.3054H27.1044V37.6974ZM27.1044 28.4609H31.0142C31.696 28.4609 32.3104 28.3366 32.8572 28.0881C33.4041 27.8324 33.8338 27.4737 34.1463 27.0121C34.4659 26.5433 34.6257 25.9893 34.6257 25.3501C34.6257 24.505 34.3274 23.8089 33.7308 23.2621C33.1413 22.7152 32.2642 22.4418 31.0994 22.4418H27.1044V28.4609Z" fill="white"/>
</svg>
