<svg width="28" height="28" viewBox="0 0 28 28" fill="none" xmlns="http://www.w3.org/2000/svg">
<path d="M23.3332 14.5833V7.93325C23.3332 5.97307 23.3332 4.99298 22.9517 4.24429C22.6161 3.58572 22.0807 3.05029 21.4221 2.71473C20.6734 2.33325 19.6934 2.33325 17.7332 2.33325H10.2665C8.30632 2.33325 7.32623 2.33325 6.57754 2.71473C5.91897 3.05029 5.38354 3.58572 5.04798 4.24429C4.6665 4.99298 4.6665 5.97307 4.6665 7.93325V20.0666C4.6665 22.0268 4.6665 23.0069 5.04798 23.7556C5.38354 24.4141 5.91897 24.9496 6.57754 25.2851C7.32623 25.6666 8.30632 25.6666 10.2665 25.6666H13.9998M16.3332 12.8333H9.33317M11.6665 17.4999H9.33317M18.6665 8.16659H9.33317M16.9165 22.1666L19.2498 24.4999L24.4998 19.2499" stroke="black" stroke-width="2" stroke-linecap="round" stroke-linejoin="round"/>
</svg>
