<svg width="447" height="68" viewBox="0 0 447 68" fill="none" xmlns="http://www.w3.org/2000/svg">
<path d="M17.0511 51H9.14205L21.1932 16.0909H30.7045L42.7386 51H34.8295L26.0852 24.0682H25.8125L17.0511 51ZM16.5568 37.2784H35.2386V43.0398H16.5568V37.2784ZM56.4548 51.5114C53.773 51.5114 51.4661 50.9432 49.5343 49.8068C47.6139 48.6591 46.1366 47.0682 45.1025 45.0341C44.0798 43 43.5684 40.6591 43.5684 38.0114C43.5684 35.3295 44.0855 32.9773 45.1195 30.9545C46.165 28.9205 47.648 27.3352 49.5684 26.1989C51.4889 25.0511 53.773 24.4773 56.4207 24.4773C58.7048 24.4773 60.7048 24.892 62.4207 25.7216C64.1366 26.5511 65.4945 27.7159 66.4945 29.2159C67.4945 30.7159 68.0457 32.4773 68.148 34.5H61.2957C61.1025 33.1932 60.5911 32.142 59.7616 31.3466C58.9434 30.5398 57.8695 30.1364 56.54 30.1364C55.415 30.1364 54.432 30.4432 53.5911 31.0568C52.7616 31.6591 52.1139 32.5398 51.648 33.6989C51.182 34.858 50.9491 36.2614 50.9491 37.9091C50.9491 39.5795 51.1764 41 51.6309 42.1705C52.0968 43.3409 52.7502 44.233 53.5911 44.8466C54.432 45.4602 55.415 45.767 56.54 45.767C57.3695 45.767 58.1139 45.5966 58.773 45.2557C59.4434 44.9148 59.9945 44.4205 60.4264 43.7727C60.8695 43.1136 61.1593 42.3239 61.2957 41.4034H68.148C68.0343 43.4034 67.4889 45.1648 66.5116 46.6875C65.5457 48.1989 64.2105 49.3807 62.5059 50.233C60.8014 51.0852 58.7843 51.5114 56.4548 51.5114ZM83.6666 51.5114C80.9848 51.5114 78.678 50.9432 76.7462 49.8068C74.8257 48.6591 73.3485 47.0682 72.3144 45.0341C71.2916 43 70.7803 40.6591 70.7803 38.0114C70.7803 35.3295 71.2973 32.9773 72.3314 30.9545C73.3769 28.9205 74.8598 27.3352 76.7803 26.1989C78.7007 25.0511 80.9848 24.4773 83.6326 24.4773C85.9167 24.4773 87.9167 24.892 89.6326 25.7216C91.3485 26.5511 92.7064 27.7159 93.7064 29.2159C94.7064 30.7159 95.2576 32.4773 95.3598 34.5H88.5076C88.3144 33.1932 87.803 32.142 86.9735 31.3466C86.1553 30.5398 85.0814 30.1364 83.7519 30.1364C82.6269 30.1364 81.6439 30.4432 80.803 31.0568C79.9735 31.6591 79.3257 32.5398 78.8598 33.6989C78.3939 34.858 78.161 36.2614 78.161 37.9091C78.161 39.5795 78.3882 41 78.8428 42.1705C79.3087 43.3409 79.9621 44.233 80.803 44.8466C81.6439 45.4602 82.6269 45.767 83.7519 45.767C84.5814 45.767 85.3257 45.5966 85.9848 45.2557C86.6553 44.9148 87.2064 44.4205 87.6382 43.7727C88.0814 43.1136 88.3712 42.3239 88.5076 41.4034H95.3598C95.2462 43.4034 94.7007 45.1648 93.7235 46.6875C92.7576 48.1989 91.4223 49.3807 89.7178 50.233C88.0132 51.0852 85.9962 51.5114 83.6666 51.5114ZM110.981 51.5114C108.288 51.5114 105.969 50.9659 104.026 49.875C102.094 48.7727 100.606 47.2159 99.5603 45.2045C98.5149 43.1818 97.9922 40.7898 97.9922 38.0284C97.9922 35.3352 98.5149 32.9716 99.5603 30.9375C100.606 28.9034 102.077 27.3182 103.975 26.1818C105.884 25.0455 108.123 24.4773 110.691 24.4773C112.418 24.4773 114.026 24.7557 115.515 25.3125C117.015 25.858 118.322 26.6818 119.435 27.7841C120.56 28.8864 121.435 30.2727 122.06 31.9432C122.685 33.6023 122.998 35.5455 122.998 37.7727V39.767H100.89V35.267H116.163C116.163 34.2216 115.935 33.2955 115.481 32.4886C115.026 31.6818 114.396 31.0511 113.589 30.5966C112.793 30.1307 111.867 29.8977 110.81 29.8977C109.708 29.8977 108.731 30.1534 107.879 30.6648C107.038 31.1648 106.379 31.8409 105.901 32.6932C105.424 33.5341 105.18 34.4716 105.168 35.5057V39.7841C105.168 41.0795 105.407 42.1989 105.884 43.142C106.373 44.0852 107.06 44.8125 107.947 45.3239C108.833 45.8352 109.884 46.0909 111.1 46.0909C111.907 46.0909 112.646 45.9773 113.316 45.75C113.986 45.5227 114.56 45.1818 115.038 44.7273C115.515 44.2727 115.879 43.7159 116.129 43.0568L122.844 43.5C122.504 45.1136 121.805 46.5227 120.748 47.7273C119.702 48.9205 118.35 49.8523 116.691 50.5227C115.043 51.1818 113.14 51.5114 110.981 51.5114ZM148.561 32.2841L141.913 32.6932C141.799 32.125 141.555 31.6136 141.18 31.1591C140.805 30.6932 140.311 30.3239 139.697 30.0511C139.095 29.767 138.373 29.625 137.532 29.625C136.407 29.625 135.458 29.8636 134.686 30.3409C133.913 30.8068 133.526 31.4318 133.526 32.2159C133.526 32.8409 133.776 33.3693 134.276 33.8011C134.776 34.233 135.634 34.5795 136.85 34.8409L141.589 35.7955C144.134 36.3182 146.032 37.1591 147.282 38.3182C148.532 39.4773 149.157 41 149.157 42.8864C149.157 44.6023 148.651 46.108 147.64 47.4034C146.64 48.6989 145.265 49.7102 143.515 50.4375C141.776 51.1534 139.771 51.5114 137.498 51.5114C134.032 51.5114 131.271 50.7898 129.214 49.3466C127.169 47.892 125.97 45.9148 125.617 43.4148L132.759 43.0398C132.975 44.0966 133.498 44.9034 134.328 45.4602C135.157 46.0057 136.22 46.2784 137.515 46.2784C138.788 46.2784 139.811 46.0341 140.583 45.5455C141.367 45.0455 141.765 44.4034 141.776 43.6193C141.765 42.9602 141.487 42.4205 140.941 42C140.396 41.5682 139.555 41.2386 138.419 41.0114L133.884 40.108C131.328 39.5966 129.424 38.7102 128.174 37.4489C126.936 36.1875 126.316 34.5795 126.316 32.625C126.316 30.9432 126.771 29.4943 127.68 28.2784C128.6 27.0625 129.89 26.125 131.549 25.4659C133.22 24.8068 135.174 24.4773 137.413 24.4773C140.72 24.4773 143.322 25.1761 145.22 26.5739C147.129 27.9716 148.242 29.875 148.561 32.2841ZM174.554 32.2841L167.906 32.6932C167.792 32.125 167.548 31.6136 167.173 31.1591C166.798 30.6932 166.304 30.3239 165.69 30.0511C165.088 29.767 164.366 29.625 163.525 29.625C162.4 29.625 161.451 29.8636 160.679 30.3409C159.906 30.8068 159.52 31.4318 159.52 32.2159C159.52 32.8409 159.77 33.3693 160.27 33.8011C160.77 34.233 161.628 34.5795 162.843 34.8409L167.582 35.7955C170.128 36.3182 172.025 37.1591 173.275 38.3182C174.525 39.4773 175.15 41 175.15 42.8864C175.15 44.6023 174.645 46.108 173.633 47.4034C172.633 48.6989 171.258 49.7102 169.508 50.4375C167.77 51.1534 165.764 51.5114 163.491 51.5114C160.025 51.5114 157.264 50.7898 155.207 49.3466C153.162 47.892 151.963 45.9148 151.611 43.4148L158.753 43.0398C158.968 44.0966 159.491 44.9034 160.321 45.4602C161.15 46.0057 162.213 46.2784 163.508 46.2784C164.781 46.2784 165.804 46.0341 166.576 45.5455C167.361 45.0455 167.758 44.4034 167.77 43.6193C167.758 42.9602 167.48 42.4205 166.934 42C166.389 41.5682 165.548 41.2386 164.412 41.0114L159.878 40.108C157.321 39.5966 155.417 38.7102 154.167 37.4489C152.929 36.1875 152.309 34.5795 152.309 32.625C152.309 30.9432 152.764 29.4943 153.673 28.2784C154.593 27.0625 155.883 26.125 157.542 25.4659C159.213 24.8068 161.167 24.4773 163.406 24.4773C166.713 24.4773 169.315 25.1761 171.213 26.5739C173.122 27.9716 174.236 29.875 174.554 32.2841Z" fill="#181D27"/>
<path d="M210 6.57735C210.619 6.22008 211.381 6.22008 212 6.57735L234.249 19.4226C234.868 19.7799 235.249 20.4402 235.249 21.1547V46.8453C235.249 47.5598 234.868 48.2201 234.249 48.5774L212 61.4226C211.381 61.7799 210.619 61.7799 210 61.4226L187.751 48.5774C187.132 48.2201 186.751 47.5598 186.751 46.8453V21.1547C186.751 20.4402 187.132 19.7799 187.751 19.4226L210 6.57735Z" fill="#06AED4"/>
<path d="M203.939 45V42.1449L211.513 34.7195C212.238 33.9879 212.842 33.3381 213.325 32.7699C213.808 32.2017 214.17 31.6513 214.411 31.1186C214.653 30.5859 214.773 30.0178 214.773 29.4141C214.773 28.7251 214.617 28.1357 214.305 27.6456C213.992 27.1484 213.562 26.7649 213.016 26.495C212.469 26.2251 211.847 26.0902 211.151 26.0902C210.434 26.0902 209.805 26.2393 209.266 26.5376C208.726 26.8288 208.307 27.2443 208.009 27.7841C207.717 28.3239 207.572 28.9666 207.572 29.7124H203.811C203.811 28.3274 204.127 27.1236 204.759 26.1009C205.391 25.0781 206.261 24.2862 207.369 23.7251C208.484 23.1641 209.763 22.8835 211.205 22.8835C212.668 22.8835 213.953 23.157 215.061 23.7038C216.169 24.2507 217.028 25 217.639 25.9517C218.257 26.9034 218.566 27.9901 218.566 29.2116C218.566 30.0284 218.41 30.831 218.097 31.6193C217.785 32.4077 217.234 33.2812 216.446 34.2401C215.665 35.1989 214.567 36.3601 213.154 37.7237L209.393 41.5483V41.6974H218.896V45H203.939Z" fill="white"/>
<path d="M248.034 51V16.0909H262.011C264.58 16.0909 266.722 16.4716 268.438 17.233C270.153 17.9943 271.443 19.0511 272.307 20.4034C273.17 21.7443 273.602 23.2898 273.602 25.0398C273.602 26.4034 273.33 27.6023 272.784 28.6364C272.239 29.6591 271.489 30.5 270.534 31.1591C269.591 31.8068 268.511 32.267 267.295 32.5398V32.8807C268.625 32.9375 269.869 33.3125 271.028 34.0057C272.199 34.6989 273.148 35.6705 273.875 36.9205C274.602 38.1591 274.966 39.6364 274.966 41.3523C274.966 43.2045 274.506 44.858 273.585 46.3125C272.676 47.7557 271.33 48.8977 269.545 49.7386C267.761 50.5795 265.563 51 262.949 51H248.034ZM255.415 44.9659H261.432C263.489 44.9659 264.989 44.5739 265.932 43.7898C266.875 42.9943 267.347 41.9375 267.347 40.6193C267.347 39.6534 267.114 38.8011 266.648 38.0625C266.182 37.3239 265.517 36.7443 264.653 36.3239C263.801 35.9034 262.784 35.6932 261.602 35.6932H255.415V44.9659ZM255.415 30.6989H260.886C261.898 30.6989 262.795 30.5227 263.58 30.1705C264.375 29.8068 265 29.2955 265.455 28.6364C265.92 27.9773 266.153 27.1875 266.153 26.267C266.153 25.0057 265.705 23.9886 264.807 23.2159C263.92 22.4432 262.659 22.0568 261.023 22.0568H255.415V30.6989ZM290.604 51.5114C287.911 51.5114 285.593 50.9659 283.649 49.875C281.718 48.7727 280.229 47.2159 279.183 45.2045C278.138 43.1818 277.615 40.7898 277.615 38.0284C277.615 35.3352 278.138 32.9716 279.183 30.9375C280.229 28.9034 281.701 27.3182 283.598 26.1818C285.507 25.0455 287.746 24.4773 290.314 24.4773C292.041 24.4773 293.649 24.7557 295.138 25.3125C296.638 25.858 297.945 26.6818 299.058 27.7841C300.183 28.8864 301.058 30.2727 301.683 31.9432C302.308 33.6023 302.621 35.5455 302.621 37.7727V39.767H280.513V35.267H295.786C295.786 34.2216 295.558 33.2955 295.104 32.4886C294.649 31.6818 294.019 31.0511 293.212 30.5966C292.416 30.1307 291.49 29.8977 290.433 29.8977C289.331 29.8977 288.354 30.1534 287.502 30.6648C286.661 31.1648 286.002 31.8409 285.524 32.6932C285.047 33.5341 284.803 34.4716 284.791 35.5057V39.7841C284.791 41.0795 285.03 42.1989 285.507 43.142C285.996 44.0852 286.683 44.8125 287.57 45.3239C288.456 45.8352 289.507 46.0909 290.723 46.0909C291.53 46.0909 292.269 45.9773 292.939 45.75C293.61 45.5227 294.183 45.1818 294.661 44.7273C295.138 44.2727 295.502 43.7159 295.752 43.0568L302.468 43.5C302.127 45.1136 301.428 46.5227 300.371 47.7273C299.326 48.9205 297.973 49.8523 296.314 50.5227C294.666 51.1818 292.763 51.5114 290.604 51.5114ZM313.661 35.8636V51H306.4V24.8182H313.32V29.4375H313.627C314.206 27.9148 315.178 26.7102 316.542 25.8239C317.905 24.9261 319.559 24.4773 321.502 24.4773C323.32 24.4773 324.905 24.875 326.258 25.6705C327.61 26.4659 328.661 27.6023 329.411 29.0795C330.161 30.5455 330.536 32.2955 330.536 34.3295V51H323.275V35.625C323.286 34.0227 322.877 32.7727 322.047 31.875C321.218 30.9659 320.076 30.5114 318.621 30.5114C317.644 30.5114 316.78 30.7216 316.03 31.142C315.292 31.5625 314.712 32.1761 314.292 32.983C313.883 33.7784 313.672 34.7386 313.661 35.8636ZM347.231 51.5114C344.538 51.5114 342.219 50.9659 340.276 49.875C338.344 48.7727 336.856 47.2159 335.81 45.2045C334.765 43.1818 334.242 40.7898 334.242 38.0284C334.242 35.3352 334.765 32.9716 335.81 30.9375C336.856 28.9034 338.327 27.3182 340.225 26.1818C342.134 25.0455 344.373 24.4773 346.941 24.4773C348.668 24.4773 350.276 24.7557 351.765 25.3125C353.265 25.858 354.572 26.6818 355.685 27.7841C356.81 28.8864 357.685 30.2727 358.31 31.9432C358.935 33.6023 359.248 35.5455 359.248 37.7727V39.767H337.14V35.267H352.413C352.413 34.2216 352.185 33.2955 351.731 32.4886C351.276 31.6818 350.646 31.0511 349.839 30.5966C349.043 30.1307 348.117 29.8977 347.06 29.8977C345.958 29.8977 344.981 30.1534 344.129 30.6648C343.288 31.1648 342.629 31.8409 342.151 32.6932C341.674 33.5341 341.43 34.4716 341.418 35.5057V39.7841C341.418 41.0795 341.657 42.1989 342.134 43.142C342.623 44.0852 343.31 44.8125 344.197 45.3239C345.083 45.8352 346.134 46.0909 347.35 46.0909C348.157 46.0909 348.896 45.9773 349.566 45.75C350.236 45.5227 350.81 45.1818 351.288 44.7273C351.765 44.2727 352.129 43.7159 352.379 43.0568L359.094 43.5C358.754 45.1136 358.055 46.5227 356.998 47.7273C355.952 48.9205 354.6 49.8523 352.941 50.5227C351.293 51.1818 349.39 51.5114 347.231 51.5114ZM377.106 24.8182V30.2727H360.947V24.8182H377.106ZM364.646 51V22.9261C364.646 21.0284 365.015 19.4545 365.754 18.2045C366.504 16.9545 367.526 16.017 368.822 15.392C370.117 14.767 371.589 14.4545 373.237 14.4545C374.35 14.4545 375.367 14.5398 376.288 14.7102C377.22 14.8807 377.913 15.0341 378.367 15.1705L377.072 20.625C376.788 20.5341 376.436 20.4489 376.015 20.3693C375.606 20.2898 375.186 20.25 374.754 20.25C373.686 20.25 372.941 20.5 372.521 21C372.1 21.4886 371.89 22.1761 371.89 23.0625V51H364.646ZM380.582 51V24.8182H387.843V51H380.582ZM384.23 21.4432C383.15 21.4432 382.224 21.0852 381.451 20.3693C380.69 19.642 380.309 18.7727 380.309 17.7614C380.309 16.7614 380.69 15.9034 381.451 15.1875C382.224 14.4602 383.15 14.0966 384.23 14.0966C385.309 14.0966 386.23 14.4602 386.991 15.1875C387.764 15.9034 388.15 16.7614 388.15 17.7614C388.15 18.7727 387.764 19.642 386.991 20.3693C386.23 21.0852 385.309 21.4432 384.23 21.4432ZM406.626 24.8182V30.2727H390.859V24.8182H406.626ZM394.439 18.5455H401.7V42.9545C401.7 43.625 401.803 44.1477 402.007 44.5227C402.212 44.8864 402.496 45.142 402.859 45.2898C403.234 45.4375 403.666 45.5114 404.155 45.5114C404.496 45.5114 404.837 45.483 405.178 45.4261C405.518 45.358 405.78 45.3068 405.962 45.2727L407.104 50.6761C406.74 50.7898 406.229 50.9205 405.57 51.0682C404.91 51.2273 404.109 51.3239 403.166 51.358C401.416 51.4261 399.882 51.1932 398.564 50.6591C397.257 50.125 396.24 49.2955 395.513 48.1705C394.785 47.0455 394.428 45.625 394.439 43.9091V18.5455ZM431.852 32.2841L425.205 32.6932C425.091 32.125 424.847 31.6136 424.472 31.1591C424.097 30.6932 423.602 30.3239 422.989 30.0511C422.387 29.767 421.665 29.625 420.824 29.625C419.699 29.625 418.75 29.8636 417.977 30.3409C417.205 30.8068 416.818 31.4318 416.818 32.2159C416.818 32.8409 417.068 33.3693 417.568 33.8011C418.068 34.233 418.926 34.5795 420.142 34.8409L424.881 35.7955C427.426 36.3182 429.324 37.1591 430.574 38.3182C431.824 39.4773 432.449 41 432.449 42.8864C432.449 44.6023 431.943 46.108 430.932 47.4034C429.932 48.6989 428.557 49.7102 426.807 50.4375C425.068 51.1534 423.063 51.5114 420.79 51.5114C417.324 51.5114 414.563 50.7898 412.506 49.3466C410.46 47.892 409.262 45.9148 408.909 43.4148L416.051 43.0398C416.267 44.0966 416.79 44.9034 417.619 45.4602C418.449 46.0057 419.512 46.2784 420.807 46.2784C422.08 46.2784 423.102 46.0341 423.875 45.5455C424.659 45.0455 425.057 44.4034 425.068 43.6193C425.057 42.9602 424.779 42.4205 424.233 42C423.688 41.5682 422.847 41.2386 421.71 41.0114L417.176 40.108C414.619 39.5966 412.716 38.7102 411.466 37.4489C410.227 36.1875 409.608 34.5795 409.608 32.625C409.608 30.9432 410.063 29.4943 410.972 28.2784C411.892 27.0625 413.182 26.125 414.841 25.4659C416.512 24.8068 418.466 24.4773 420.705 24.4773C424.012 24.4773 426.614 25.1761 428.512 26.5739C430.421 27.9716 431.534 29.875 431.852 32.2841Z" fill="#181D27"/>
</svg>
