<svg width="170" height="40" viewBox="0 0 170 40" fill="none" xmlns="http://www.w3.org/2000/svg">
<rect width="170" height="40" rx="12" fill="#F5F5F5"/>
<g clip-path="url(#clip0_7127_839)">
<path d="M19 8.57735C19.6188 8.22008 20.3812 8.22008 21 8.57735L29.3923 13.4226C30.0111 13.7799 30.3923 14.4402 30.3923 15.1547V24.8453C30.3923 25.5598 30.0111 26.2201 29.3923 26.5774L21 31.4226C20.3812 31.7799 19.6188 31.7799 19 31.4226L10.6077 26.5774C9.98889 26.2201 9.6077 25.5598 9.6077 24.8453V15.1547C9.6077 14.4402 9.98889 13.7799 10.6077 13.4226L19 8.57735Z" fill="#06AED4"/>
<path d="M16.8608 24V15.2727H20.2017C20.8324 15.2727 21.3565 15.3722 21.7741 15.571C22.1946 15.767 22.5085 16.0355 22.7159 16.3764C22.9261 16.7173 23.0312 17.1037 23.0312 17.5355C23.0312 17.8906 22.9631 18.1946 22.8267 18.4474C22.6903 18.6974 22.5071 18.9006 22.277 19.0568C22.0469 19.2131 21.7898 19.3253 21.5057 19.3935V19.4787C21.8153 19.4957 22.1122 19.5909 22.3963 19.7642C22.6832 19.9347 22.9176 20.1761 23.0994 20.4886C23.2813 20.8011 23.3722 21.179 23.3722 21.6222C23.3722 22.0739 23.2628 22.4801 23.044 22.8409C22.8253 23.1989 22.4957 23.4815 22.0554 23.6889C21.6151 23.8963 21.0611 24 20.3935 24H16.8608ZM18.4418 22.679H20.142C20.7159 22.679 21.1293 22.5696 21.3821 22.3509C21.6378 22.1293 21.7656 21.8452 21.7656 21.4986C21.7656 21.2401 21.7017 21.0071 21.5739 20.7997C21.446 20.5895 21.2642 20.4247 21.0284 20.3054C20.7926 20.1832 20.5114 20.1222 20.1847 20.1222H18.4418V22.679ZM18.4418 18.9844H20.0057C20.2784 18.9844 20.5241 18.9347 20.7429 18.8352C20.9616 18.733 21.1335 18.5895 21.2585 18.4048C21.3864 18.2173 21.4503 17.9957 21.4503 17.7401C21.4503 17.402 21.331 17.1236 21.0923 16.9048C20.8565 16.6861 20.5057 16.5767 20.0398 16.5767H18.4418V18.9844Z" fill="white"/>
</g>
<path d="M41.517 29V11.5455H48.5057C49.7898 11.5455 50.8608 11.7358 51.7188 12.1165C52.5767 12.4972 53.2216 13.0256 53.6534 13.7017C54.0852 14.3722 54.3011 15.1449 54.3011 16.0199C54.3011 16.7017 54.1648 17.3011 53.892 17.8182C53.6193 18.3295 53.2443 18.75 52.767 19.0795C52.2955 19.4034 51.7557 19.6335 51.1477 19.7699V19.9403C51.8125 19.9687 52.4347 20.1562 53.0142 20.5028C53.5994 20.8494 54.0739 21.3352 54.4375 21.9602C54.8011 22.5795 54.983 23.3182 54.983 24.1761C54.983 25.1023 54.7528 25.929 54.2926 26.6562C53.8381 27.3778 53.1648 27.9489 52.2727 28.3693C51.3807 28.7898 50.2813 29 48.9744 29H41.517ZM45.2074 25.983H48.2159C49.2443 25.983 49.9943 25.7869 50.4659 25.3949C50.9375 24.9972 51.1733 24.4687 51.1733 23.8097C51.1733 23.3267 51.0568 22.9006 50.8239 22.5312C50.5909 22.1619 50.2585 21.8722 49.8267 21.6619C49.4006 21.4517 48.892 21.3466 48.3011 21.3466H45.2074V25.983ZM45.2074 18.8494H47.9432C48.4489 18.8494 48.8977 18.7614 49.2898 18.5852C49.6875 18.4034 50 18.1477 50.2273 17.8182C50.4602 17.4886 50.5767 17.0938 50.5767 16.6335C50.5767 16.0028 50.3523 15.4943 49.9034 15.108C49.4602 14.7216 48.8295 14.5284 48.0114 14.5284H45.2074V18.8494ZM63.282 29.2557C61.9354 29.2557 60.7763 28.983 59.8047 28.4375C58.8388 27.8864 58.0945 27.108 57.5717 26.1023C57.049 25.0909 56.7876 23.8949 56.7876 22.5142C56.7876 21.1676 57.049 19.9858 57.5717 18.9688C58.0945 17.9517 58.8303 17.1591 59.7791 16.5909C60.7337 16.0227 61.853 15.7386 63.1371 15.7386C64.0007 15.7386 64.8047 15.8778 65.549 16.1562C66.299 16.429 66.9524 16.8409 67.5092 17.392C68.0717 17.9432 68.5092 18.6364 68.8217 19.4716C69.1342 20.3011 69.2905 21.2727 69.2905 22.3864V23.3835H58.2365V21.1335H65.8729C65.8729 20.6108 65.7592 20.1477 65.532 19.7443C65.3047 19.3409 64.9893 19.0256 64.5859 18.7983C64.1882 18.5653 63.7251 18.4489 63.1967 18.4489C62.6456 18.4489 62.157 18.5767 61.7308 18.8324C61.3104 19.0824 60.9808 19.4205 60.7422 19.8466C60.5036 20.267 60.3814 20.7358 60.3757 21.2528V23.392C60.3757 24.0398 60.495 24.5994 60.7337 25.071C60.978 25.5426 61.3217 25.9062 61.7649 26.1619C62.2081 26.4176 62.7337 26.5455 63.3416 26.5455C63.745 26.5455 64.1143 26.4886 64.4496 26.375C64.7848 26.2614 65.0717 26.0909 65.3104 25.8636C65.549 25.6364 65.7308 25.358 65.8558 25.0284L69.2138 25.25C69.0433 26.0568 68.6939 26.7614 68.1655 27.3636C67.6428 27.9602 66.9666 28.4261 66.1371 28.7614C65.3132 29.0909 64.3615 29.2557 63.282 29.2557ZM75.2905 21.4318V29H71.6598V15.9091H75.12V18.2188H75.2734C75.5632 17.4574 76.049 16.8551 76.7308 16.4119C77.4126 15.9631 78.2393 15.7386 79.2109 15.7386C80.12 15.7386 80.9126 15.9375 81.5888 16.3352C82.2649 16.733 82.7905 17.3011 83.1655 18.0398C83.5405 18.7727 83.728 19.6477 83.728 20.6648V29H80.0973V21.3125C80.103 20.5114 79.8984 19.8864 79.4837 19.4375C79.0689 18.983 78.4979 18.7557 77.7706 18.7557C77.282 18.7557 76.8501 18.8608 76.4751 19.071C76.1058 19.2812 75.8161 19.5881 75.6058 19.9915C75.4013 20.3892 75.2962 20.8693 75.2905 21.4318ZM92.5554 29.2557C91.2088 29.2557 90.0497 28.983 89.0781 28.4375C88.1122 27.8864 87.3679 27.108 86.8452 26.1023C86.3224 25.0909 86.0611 23.8949 86.0611 22.5142C86.0611 21.1676 86.3224 19.9858 86.8452 18.9688C87.3679 17.9517 88.1037 17.1591 89.0526 16.5909C90.0071 16.0227 91.1264 15.7386 92.4105 15.7386C93.2741 15.7386 94.0781 15.8778 94.8224 16.1562C95.5724 16.429 96.2259 16.8409 96.7827 17.392C97.3452 17.9432 97.7827 18.6364 98.0952 19.4716C98.4077 20.3011 98.5639 21.2727 98.5639 22.3864V23.3835H87.5099V21.1335H95.1463C95.1463 20.6108 95.0327 20.1477 94.8054 19.7443C94.5781 19.3409 94.2628 19.0256 93.8594 18.7983C93.4616 18.5653 92.9986 18.4489 92.4702 18.4489C91.919 18.4489 91.4304 18.5767 91.0043 18.8324C90.5838 19.0824 90.2543 19.4205 90.0156 19.8466C89.777 20.267 89.6548 20.7358 89.6491 21.2528V23.392C89.6491 24.0398 89.7685 24.5994 90.0071 25.071C90.2514 25.5426 90.5952 25.9062 91.0384 26.1619C91.4815 26.4176 92.0071 26.5455 92.6151 26.5455C93.0185 26.5455 93.3878 26.4886 93.723 26.375C94.0582 26.2614 94.3452 26.0909 94.5838 25.8636C94.8224 25.6364 95.0043 25.358 95.1293 25.0284L98.4872 25.25C98.3168 26.0568 97.9673 26.7614 97.4389 27.3636C96.9162 27.9602 96.2401 28.4261 95.4105 28.7614C94.5866 29.0909 93.6349 29.2557 92.5554 29.2557ZM110.47 16.5653C110.402 15.8778 110.109 15.3437 109.592 14.9631C109.075 14.5824 108.374 14.392 107.487 14.392C106.885 14.392 106.376 14.4773 105.962 14.6477C105.547 14.8125 105.229 15.0426 105.007 15.3381C104.791 15.6335 104.683 15.9688 104.683 16.3438C104.672 16.6562 104.737 16.929 104.879 17.1619C105.027 17.3949 105.229 17.5966 105.484 17.767C105.74 17.9318 106.036 18.0767 106.371 18.2017C106.706 18.321 107.064 18.4233 107.445 18.5085L109.013 18.8835C109.774 19.054 110.473 19.2812 111.109 19.5653C111.746 19.8494 112.297 20.1989 112.763 20.6136C113.229 21.0284 113.589 21.517 113.845 22.0795C114.107 22.642 114.24 23.2869 114.246 24.0142C114.24 25.0824 113.967 26.0085 113.428 26.7926C112.893 27.571 112.121 28.1761 111.109 28.608C110.104 29.0341 108.891 29.2472 107.47 29.2472C106.061 29.2472 104.834 29.0312 103.788 28.5994C102.749 28.1676 101.936 27.5284 101.351 26.6818C100.771 25.8295 100.467 24.7756 100.439 23.5199H104.01C104.05 24.1051 104.217 24.5937 104.513 24.9858C104.814 25.3722 105.214 25.6648 105.714 25.8636C106.22 26.0568 106.791 26.1534 107.428 26.1534C108.053 26.1534 108.595 26.0625 109.055 25.8807C109.521 25.6989 109.882 25.446 110.138 25.1222C110.393 24.7983 110.521 24.4261 110.521 24.0057C110.521 23.6136 110.405 23.2841 110.172 23.017C109.945 22.75 109.609 22.5227 109.166 22.3352C108.729 22.1477 108.192 21.9773 107.555 21.8239L105.655 21.3466C104.183 20.9886 103.021 20.429 102.169 19.6676C101.317 18.9062 100.893 17.8807 100.899 16.5909C100.893 15.5341 101.175 14.6108 101.743 13.821C102.317 13.0312 103.104 12.4148 104.104 11.9716C105.104 11.5284 106.24 11.3068 107.513 11.3068C108.808 11.3068 109.939 11.5284 110.905 11.9716C111.876 12.4148 112.632 13.0312 113.172 13.821C113.712 14.6108 113.99 15.5256 114.007 16.5653H110.47ZM123.623 15.9091V18.6364H115.739V15.9091H123.623ZM117.529 12.7727H121.16V24.9773C121.16 25.3125 121.211 25.5739 121.313 25.7614C121.415 25.9432 121.558 26.071 121.739 26.1449C121.927 26.2187 122.143 26.2557 122.387 26.2557C122.558 26.2557 122.728 26.2415 122.898 26.2131C123.069 26.179 123.2 26.1534 123.29 26.1364L123.862 28.8381C123.68 28.8949 123.424 28.9602 123.094 29.0341C122.765 29.1136 122.364 29.1619 121.893 29.179C121.018 29.2131 120.251 29.0966 119.592 28.8295C118.938 28.5625 118.43 28.1477 118.066 27.5852C117.702 27.0227 117.523 26.3125 117.529 25.4545V12.7727ZM129.721 29.2472C128.886 29.2472 128.141 29.1023 127.488 28.8125C126.835 28.517 126.317 28.0824 125.937 27.5085C125.562 26.929 125.374 26.2074 125.374 25.3438C125.374 24.6165 125.508 24.0057 125.775 23.5114C126.042 23.017 126.406 22.6193 126.866 22.3182C127.326 22.017 127.849 21.7898 128.434 21.6364C129.025 21.483 129.644 21.375 130.292 21.3125C131.053 21.233 131.667 21.1591 132.133 21.0909C132.599 21.017 132.937 20.9091 133.147 20.767C133.357 20.625 133.462 20.4148 133.462 20.1364V20.0852C133.462 19.5455 133.292 19.1278 132.951 18.8324C132.616 18.5369 132.138 18.3892 131.519 18.3892C130.866 18.3892 130.346 18.5341 129.96 18.8239C129.573 19.108 129.317 19.4659 129.192 19.8977L125.835 19.625C126.005 18.8295 126.34 18.142 126.84 17.5625C127.34 16.9773 127.985 16.5284 128.775 16.2159C129.57 15.8977 130.491 15.7386 131.536 15.7386C132.263 15.7386 132.96 15.8239 133.624 15.9943C134.295 16.1648 134.888 16.429 135.406 16.7869C135.928 17.1449 136.34 17.6051 136.641 18.1676C136.942 18.7244 137.093 19.392 137.093 20.1705V29H133.65V27.1847H133.548C133.337 27.5938 133.056 27.9545 132.704 28.267C132.352 28.5739 131.928 28.8153 131.434 28.9915C130.94 29.1619 130.369 29.2472 129.721 29.2472ZM130.761 26.7415C131.295 26.7415 131.766 26.6364 132.175 26.4261C132.585 26.2102 132.906 25.9205 133.138 25.5568C133.371 25.1932 133.488 24.7812 133.488 24.321V22.9318C133.374 23.0057 133.218 23.0739 133.019 23.1364C132.826 23.1932 132.607 23.2472 132.363 23.2983C132.119 23.3437 131.874 23.3864 131.63 23.4261C131.386 23.4602 131.164 23.4915 130.965 23.5199C130.539 23.5824 130.167 23.6818 129.849 23.8182C129.531 23.9545 129.283 24.1392 129.107 24.3722C128.931 24.5994 128.843 24.8835 128.843 25.2244C128.843 25.7188 129.022 26.0966 129.38 26.358C129.744 26.6136 130.204 26.7415 130.761 26.7415ZM146.873 15.9091V18.6364H138.989V15.9091H146.873ZM140.779 12.7727H144.41V24.9773C144.41 25.3125 144.461 25.5739 144.563 25.7614C144.665 25.9432 144.808 26.071 144.989 26.1449C145.177 26.2187 145.393 26.2557 145.637 26.2557C145.808 26.2557 145.978 26.2415 146.148 26.2131C146.319 26.179 146.45 26.1534 146.54 26.1364L147.112 28.8381C146.93 28.8949 146.674 28.9602 146.344 29.0341C146.015 29.1136 145.614 29.1619 145.143 29.179C144.268 29.2131 143.501 29.0966 142.842 28.8295C142.188 28.5625 141.68 28.1477 141.316 27.5852C140.952 27.0227 140.773 26.3125 140.779 25.4545V12.7727ZM159.966 19.642L156.642 19.8466C156.585 19.5625 156.463 19.3068 156.276 19.0795C156.088 18.8466 155.841 18.6619 155.534 18.5256C155.233 18.3835 154.872 18.3125 154.452 18.3125C153.889 18.3125 153.415 18.4318 153.028 18.6705C152.642 18.9034 152.449 19.2159 152.449 19.608C152.449 19.9205 152.574 20.1847 152.824 20.4006C153.074 20.6165 153.503 20.7898 154.111 20.9205L156.48 21.3977C157.753 21.6591 158.702 22.0795 159.327 22.6591C159.952 23.2386 160.264 24 160.264 24.9432C160.264 25.8011 160.011 26.554 159.506 27.2017C159.006 27.8494 158.318 28.3551 157.443 28.7188C156.574 29.0767 155.571 29.2557 154.435 29.2557C152.702 29.2557 151.321 28.8949 150.293 28.1733C149.27 27.446 148.67 26.4574 148.494 25.2074L152.065 25.0199C152.173 25.5483 152.435 25.9517 152.849 26.2301C153.264 26.5028 153.795 26.6392 154.443 26.6392C155.08 26.6392 155.591 26.517 155.977 26.2727C156.369 26.0227 156.568 25.7017 156.574 25.3097C156.568 24.9801 156.429 24.7102 156.156 24.5C155.884 24.2841 155.463 24.1193 154.895 24.0057L152.628 23.554C151.349 23.2983 150.398 22.8551 149.773 22.2244C149.153 21.5937 148.844 20.7898 148.844 19.8125C148.844 18.9716 149.071 18.2472 149.526 17.6392C149.986 17.0312 150.631 16.5625 151.46 16.233C152.295 15.9034 153.273 15.7386 154.392 15.7386C156.045 15.7386 157.347 16.0881 158.295 16.7869C159.25 17.4858 159.807 18.4375 159.966 19.642Z" fill="black"/>
<defs>
<clipPath id="clip0_7127_839">
<rect width="24" height="24" fill="white" transform="translate(8 8)"/>
</clipPath>
</defs>
</svg>
