<svg width="180" height="68" viewBox="0 0 180 68" fill="none" xmlns="http://www.w3.org/2000/svg">
<rect width="180" height="68" rx="12" fill="#F5F5F5"/>
<path d="M36 7.1547C37.2376 6.44017 38.7624 6.44017 40 7.1547L60.2487 18.8453C61.4863 19.5598 62.2487 20.8803 62.2487 22.3094V45.6906C62.2487 47.1197 61.4863 48.4402 60.2487 49.1547L40 60.8453C38.7624 61.5598 37.2376 61.5598 36 60.8453L15.7513 49.1547C14.5137 48.4402 13.7513 47.1197 13.7513 45.6906V22.3094C13.7513 20.8803 14.5137 19.5598 15.7513 18.8453L36 7.1547Z" fill="#06AED4"/>
<path d="M81.0511 51H73.142L85.1932 16.0909H94.7045L106.739 51H98.8295L90.0852 24.0682H89.8125L81.0511 51ZM80.5568 37.2784H99.2386V43.0398H80.5568V37.2784ZM109.776 51V45.6818L122.202 34.1761C123.259 33.1534 124.145 32.233 124.861 31.4148C125.588 30.5966 126.139 29.7955 126.514 29.0114C126.889 28.2159 127.077 27.358 127.077 26.4375C127.077 25.4148 126.844 24.5341 126.378 23.7955C125.912 23.0455 125.276 22.4716 124.469 22.0739C123.662 21.6648 122.747 21.4602 121.725 21.4602C120.656 21.4602 119.725 21.6761 118.929 22.108C118.134 22.5398 117.52 23.1591 117.088 23.9659C116.656 24.7727 116.441 25.733 116.441 26.8466H109.435C109.435 24.5625 109.952 22.5795 110.986 20.8977C112.02 19.2159 113.469 17.9148 115.333 16.9943C117.196 16.0739 119.344 15.6136 121.776 15.6136C124.276 15.6136 126.452 16.0568 128.304 16.9432C130.168 17.8182 131.617 19.0341 132.651 20.5909C133.685 22.1477 134.202 23.9318 134.202 25.9432C134.202 27.2614 133.941 28.5625 133.418 29.8466C132.906 31.1307 131.992 32.5568 130.674 34.125C129.355 35.6818 127.497 37.5511 125.1 39.733L120.003 44.7273V44.9659H134.662V51H109.776ZM139.255 51V16.0909H153.232C155.8 16.0909 157.942 16.4716 159.658 17.233C161.374 17.9943 162.664 19.0511 163.527 20.4034C164.391 21.7443 164.823 23.2898 164.823 25.0398C164.823 26.4034 164.55 27.6023 164.005 28.6364C163.459 29.6591 162.709 30.5 161.755 31.1591C160.812 31.8068 159.732 32.267 158.516 32.5398V32.8807C159.846 32.9375 161.09 33.3125 162.249 34.0057C163.419 34.6989 164.368 35.6705 165.096 36.9205C165.823 38.1591 166.187 39.6364 166.187 41.3523C166.187 43.2045 165.726 44.858 164.806 46.3125C163.897 47.7557 162.55 48.8977 160.766 49.7386C158.982 50.5795 156.783 51 154.169 51H139.255ZM146.635 44.9659H152.652C154.709 44.9659 156.209 44.5739 157.152 43.7898C158.096 42.9943 158.567 41.9375 158.567 40.6193C158.567 39.6534 158.334 38.8011 157.868 38.0625C157.402 37.3239 156.738 36.7443 155.874 36.3239C155.022 35.9034 154.005 35.6932 152.823 35.6932H146.635V44.9659ZM146.635 30.6989H152.107C153.118 30.6989 154.016 30.5227 154.8 30.1705C155.596 29.8068 156.221 29.2955 156.675 28.6364C157.141 27.9773 157.374 27.1875 157.374 26.267C157.374 25.0057 156.925 23.9886 156.027 23.2159C155.141 22.4432 153.88 22.0568 152.243 22.0568H146.635V30.6989Z" fill="#181D27"/>
</svg>
