<svg width="319" height="68" viewBox="0 0 319 68" fill="none" xmlns="http://www.w3.org/2000/svg">
<rect width="319" height="68" rx="12" fill="#F5F5F5"/>
<path d="M37 6.57735C37.6188 6.22008 38.3812 6.22008 39 6.57735L61.2487 19.4226C61.8675 19.7799 62.2487 20.4402 62.2487 21.1547V46.8453C62.2487 47.5598 61.8675 48.2201 61.2487 48.5774L39 61.4226C38.3812 61.7799 37.6188 61.7799 37 61.4226L14.7513 48.5774C14.1325 48.2201 13.7513 47.5598 13.7513 46.8453V21.1547C13.7513 20.4402 14.1325 19.7799 14.7513 19.4226L37 6.57735Z" fill="#06AED4"/>
<path d="M31.152 45V23.1818H39.5043C41.081 23.1818 42.3913 23.4304 43.4354 23.9276C44.4865 24.4176 45.2713 25.0888 45.7898 25.9411C46.3153 26.7933 46.5781 27.7592 46.5781 28.8388C46.5781 29.7266 46.4077 30.4865 46.0668 31.1186C45.7259 31.7436 45.2678 32.2514 44.6925 32.642C44.1172 33.0327 43.4744 33.3132 42.7642 33.4837V33.6967C43.5384 33.7393 44.2805 33.9773 44.9908 34.4105C45.7081 34.8366 46.294 35.4403 46.7486 36.2216C47.2031 37.0028 47.4304 37.9474 47.4304 39.0554C47.4304 40.1847 47.157 41.2003 46.6101 42.1023C46.0632 42.9972 45.2393 43.7038 44.1385 44.2223C43.0376 44.7408 41.6527 45 39.9837 45H31.152ZM35.1044 41.6974H39.3551C40.7898 41.6974 41.8232 41.424 42.4553 40.8771C43.0945 40.3232 43.4141 39.6129 43.4141 38.7464C43.4141 38.1001 43.2543 37.5178 42.9347 36.9993C42.6151 36.4737 42.1605 36.0618 41.571 35.7635C40.9815 35.4581 40.2784 35.3054 39.4616 35.3054H35.1044V41.6974ZM35.1044 32.4609H39.0142C39.696 32.4609 40.3104 32.3366 40.8572 32.0881C41.4041 31.8324 41.8338 31.4737 42.1463 31.0121C42.4659 30.5433 42.6257 29.9893 42.6257 29.3501C42.6257 28.505 42.3274 27.8089 41.7308 27.2621C41.1413 26.7152 40.2642 26.4418 39.0994 26.4418H35.1044V32.4609Z" fill="white"/>
<path d="M75.0341 51V16.0909H89.0114C91.5795 16.0909 93.7216 16.4716 95.4375 17.233C97.1534 17.9943 98.4432 19.0511 99.3068 20.4034C100.17 21.7443 100.602 23.2898 100.602 25.0398C100.602 26.4034 100.33 27.6023 99.7841 28.6364C99.2386 29.6591 98.4886 30.5 97.5341 31.1591C96.5909 31.8068 95.5114 32.267 94.2955 32.5398V32.8807C95.625 32.9375 96.8693 33.3125 98.0284 34.0057C99.1989 34.6989 100.148 35.6705 100.875 36.9205C101.602 38.1591 101.966 39.6364 101.966 41.3523C101.966 43.2045 101.506 44.858 100.585 46.3125C99.6761 47.7557 98.3295 48.8977 96.5455 49.7386C94.7614 50.5795 92.5625 51 89.9489 51H75.0341ZM82.4148 44.9659H88.4318C90.4886 44.9659 91.9886 44.5739 92.9318 43.7898C93.875 42.9943 94.3466 41.9375 94.3466 40.6193C94.3466 39.6534 94.1136 38.8011 93.6477 38.0625C93.1818 37.3239 92.517 36.7443 91.6534 36.3239C90.8011 35.9034 89.7841 35.6932 88.6023 35.6932H82.4148V44.9659ZM82.4148 30.6989H87.8864C88.8977 30.6989 89.7955 30.5227 90.5795 30.1705C91.375 29.8068 92 29.2955 92.4545 28.6364C92.9205 27.9773 93.1534 27.1875 93.1534 26.267C93.1534 25.0057 92.7045 23.9886 91.8068 23.2159C90.9205 22.4432 89.6591 22.0568 88.0227 22.0568H82.4148V30.6989ZM117.604 51.5114C114.911 51.5114 112.593 50.9659 110.649 49.875C108.718 48.7727 107.229 47.2159 106.183 45.2045C105.138 43.1818 104.615 40.7898 104.615 38.0284C104.615 35.3352 105.138 32.9716 106.183 30.9375C107.229 28.9034 108.701 27.3182 110.598 26.1818C112.507 25.0455 114.746 24.4773 117.314 24.4773C119.041 24.4773 120.649 24.7557 122.138 25.3125C123.638 25.858 124.945 26.6818 126.058 27.7841C127.183 28.8864 128.058 30.2727 128.683 31.9432C129.308 33.6023 129.621 35.5455 129.621 37.7727V39.767H107.513V35.267H122.786C122.786 34.2216 122.558 33.2955 122.104 32.4886C121.649 31.6818 121.019 31.0511 120.212 30.5966C119.416 30.1307 118.49 29.8977 117.433 29.8977C116.331 29.8977 115.354 30.1534 114.502 30.6648C113.661 31.1648 113.002 31.8409 112.524 32.6932C112.047 33.5341 111.803 34.4716 111.791 35.5057V39.7841C111.791 41.0795 112.03 42.1989 112.507 43.142C112.996 44.0852 113.683 44.8125 114.57 45.3239C115.456 45.8352 116.507 46.0909 117.723 46.0909C118.53 46.0909 119.269 45.9773 119.939 45.75C120.61 45.5227 121.183 45.1818 121.661 44.7273C122.138 44.2727 122.502 43.7159 122.752 43.0568L129.468 43.5C129.127 45.1136 128.428 46.5227 127.371 47.7273C126.326 48.9205 124.973 49.8523 123.314 50.5227C121.666 51.1818 119.763 51.5114 117.604 51.5114ZM140.661 35.8636V51H133.4V24.8182H140.32V29.4375H140.627C141.206 27.9148 142.178 26.7102 143.542 25.8239C144.905 24.9261 146.559 24.4773 148.502 24.4773C150.32 24.4773 151.905 24.875 153.258 25.6705C154.61 26.4659 155.661 27.6023 156.411 29.0795C157.161 30.5455 157.536 32.2955 157.536 34.3295V51H150.275V35.625C150.286 34.0227 149.877 32.7727 149.047 31.875C148.218 30.9659 147.076 30.5114 145.621 30.5114C144.644 30.5114 143.78 30.7216 143.03 31.142C142.292 31.5625 141.712 32.1761 141.292 32.983C140.883 33.7784 140.672 34.7386 140.661 35.8636ZM174.231 51.5114C171.538 51.5114 169.219 50.9659 167.276 49.875C165.344 48.7727 163.856 47.2159 162.81 45.2045C161.765 43.1818 161.242 40.7898 161.242 38.0284C161.242 35.3352 161.765 32.9716 162.81 30.9375C163.856 28.9034 165.327 27.3182 167.225 26.1818C169.134 25.0455 171.373 24.4773 173.941 24.4773C175.668 24.4773 177.276 24.7557 178.765 25.3125C180.265 25.858 181.572 26.6818 182.685 27.7841C183.81 28.8864 184.685 30.2727 185.31 31.9432C185.935 33.6023 186.248 35.5455 186.248 37.7727V39.767H164.14V35.267H179.413C179.413 34.2216 179.185 33.2955 178.731 32.4886C178.276 31.6818 177.646 31.0511 176.839 30.5966C176.043 30.1307 175.117 29.8977 174.06 29.8977C172.958 29.8977 171.981 30.1534 171.129 30.6648C170.288 31.1648 169.629 31.8409 169.151 32.6932C168.674 33.5341 168.43 34.4716 168.418 35.5057V39.7841C168.418 41.0795 168.657 42.1989 169.134 43.142C169.623 44.0852 170.31 44.8125 171.197 45.3239C172.083 45.8352 173.134 46.0909 174.35 46.0909C175.157 46.0909 175.896 45.9773 176.566 45.75C177.236 45.5227 177.81 45.1818 178.288 44.7273C178.765 44.2727 179.129 43.7159 179.379 43.0568L186.094 43.5C185.754 45.1136 185.055 46.5227 183.998 47.7273C182.952 48.9205 181.6 49.8523 179.941 50.5227C178.293 51.1818 176.39 51.5114 174.231 51.5114ZM209.1 26.1307C208.964 24.7557 208.379 23.6875 207.345 22.9261C206.311 22.1648 204.907 21.7841 203.134 21.7841C201.93 21.7841 200.913 21.9545 200.083 22.2955C199.254 22.625 198.617 23.0852 198.174 23.6761C197.742 24.267 197.526 24.9375 197.526 25.6875C197.504 26.3125 197.634 26.858 197.919 27.3239C198.214 27.7898 198.617 28.1932 199.129 28.5341C199.64 28.8636 200.231 29.1534 200.901 29.4034C201.572 29.642 202.288 29.8466 203.049 30.017L206.186 30.767C207.708 31.108 209.106 31.5625 210.379 32.1307C211.651 32.6989 212.754 33.3977 213.686 34.2273C214.617 35.0568 215.339 36.0341 215.85 37.1591C216.373 38.2841 216.64 39.5739 216.651 41.0284C216.64 43.1648 216.095 45.017 215.015 46.5852C213.947 48.142 212.401 49.3523 210.379 50.2159C208.367 51.0682 205.941 51.4943 203.1 51.4943C200.282 51.4943 197.828 51.0625 195.737 50.1989C193.657 49.3352 192.032 48.0568 190.862 46.3636C189.703 44.6591 189.095 42.5511 189.038 40.0398H196.18C196.259 41.2102 196.595 42.1875 197.186 42.9716C197.788 43.7443 198.589 44.3295 199.589 44.7273C200.6 45.1136 201.742 45.3068 203.015 45.3068C204.265 45.3068 205.35 45.125 206.271 44.7614C207.203 44.3977 207.924 43.892 208.436 43.2443C208.947 42.5966 209.203 41.8523 209.203 41.0114C209.203 40.2273 208.97 39.5682 208.504 39.0341C208.049 38.5 207.379 38.0455 206.492 37.6705C205.617 37.2955 204.544 36.9545 203.271 36.6477L199.47 35.6932C196.526 34.9773 194.203 33.858 192.498 32.3352C190.794 30.8125 189.947 28.7614 189.958 26.1818C189.947 24.0682 190.509 22.2216 191.646 20.642C192.794 19.0625 194.367 17.8295 196.367 16.9432C198.367 16.0568 200.64 15.6136 203.186 15.6136C205.776 15.6136 208.038 16.0568 209.97 16.9432C211.913 17.8295 213.424 19.0625 214.504 20.642C215.583 22.2216 216.14 24.0511 216.174 26.1307H209.1ZM234.446 24.8182V30.2727H218.679V24.8182H234.446ZM222.258 18.5455H229.52V42.9545C229.52 43.625 229.622 44.1477 229.826 44.5227C230.031 44.8864 230.315 45.142 230.679 45.2898C231.054 45.4375 231.486 45.5114 231.974 45.5114C232.315 45.5114 232.656 45.483 232.997 45.4261C233.338 45.358 233.599 45.3068 233.781 45.2727L234.923 50.6761C234.559 50.7898 234.048 50.9205 233.389 51.0682C232.73 51.2273 231.929 51.3239 230.986 51.358C229.236 51.4261 227.701 51.1932 226.383 50.6591C225.076 50.125 224.059 49.2955 223.332 48.1705C222.605 47.0455 222.247 45.625 222.258 43.9091V18.5455ZM245.682 51.4943C244.011 51.4943 242.523 51.2045 241.216 50.625C239.909 50.0341 238.875 49.1648 238.114 48.017C237.364 46.858 236.989 45.4148 236.989 43.6875C236.989 42.233 237.256 41.0114 237.79 40.0227C238.324 39.0341 239.051 38.2386 239.972 37.6364C240.892 37.0341 241.937 36.5795 243.108 36.2727C244.29 35.9659 245.528 35.75 246.824 35.625C248.347 35.4659 249.574 35.3182 250.506 35.1818C251.437 35.0341 252.114 34.8182 252.534 34.5341C252.954 34.25 253.165 33.8295 253.165 33.2727V33.1705C253.165 32.0909 252.824 31.2557 252.142 30.6648C251.472 30.0739 250.517 29.7784 249.278 29.7784C247.972 29.7784 246.932 30.0682 246.159 30.6477C245.386 31.2159 244.875 31.9318 244.625 32.7955L237.909 32.25C238.25 30.6591 238.92 29.2841 239.92 28.125C240.92 26.9545 242.21 26.0568 243.79 25.4318C245.381 24.7955 247.222 24.4773 249.312 24.4773C250.767 24.4773 252.159 24.6477 253.489 24.9886C254.829 25.3295 256.017 25.858 257.051 26.5739C258.097 27.2898 258.92 28.2102 259.523 29.3352C260.125 30.4489 260.426 31.7841 260.426 33.3409V51H253.54V47.3693H253.335C252.915 48.1875 252.352 48.9091 251.648 49.5341C250.943 50.1477 250.097 50.6307 249.108 50.983C248.119 51.3239 246.977 51.4943 245.682 51.4943ZM247.761 46.483C248.829 46.483 249.773 46.2727 250.591 45.8523C251.409 45.4205 252.051 44.8409 252.517 44.1136C252.983 43.3864 253.216 42.5625 253.216 41.642V38.8636C252.989 39.0114 252.676 39.1477 252.278 39.2727C251.892 39.3864 251.454 39.4943 250.966 39.5966C250.477 39.6875 249.989 39.7727 249.5 39.8523C249.011 39.9205 248.568 39.983 248.17 40.0398C247.318 40.1648 246.574 40.3636 245.937 40.6364C245.301 40.9091 244.807 41.2784 244.454 41.7443C244.102 42.1989 243.926 42.767 243.926 43.4489C243.926 44.4375 244.284 45.1932 245 45.7159C245.727 46.2273 246.648 46.483 247.761 46.483ZM279.026 24.8182V30.2727H263.259V24.8182H279.026ZM266.838 18.5455H274.1V42.9545C274.1 43.625 274.202 44.1477 274.406 44.5227C274.611 44.8864 274.895 45.142 275.259 45.2898C275.634 45.4375 276.066 45.5114 276.554 45.5114C276.895 45.5114 277.236 45.483 277.577 45.4261C277.918 45.358 278.179 45.3068 278.361 45.2727L279.503 50.6761C279.139 50.7898 278.628 50.9205 277.969 51.0682C277.31 51.2273 276.509 51.3239 275.566 51.358C273.816 51.4261 272.281 51.1932 270.963 50.6591C269.656 50.125 268.639 49.2955 267.912 48.1705C267.185 47.0455 266.827 45.625 266.838 43.9091V18.5455ZM304.252 32.2841L297.604 32.6932C297.49 32.125 297.246 31.6136 296.871 31.1591C296.496 30.6932 296.002 30.3239 295.388 30.0511C294.786 29.767 294.064 29.625 293.223 29.625C292.098 29.625 291.15 29.8636 290.377 30.3409C289.604 30.8068 289.218 31.4318 289.218 32.2159C289.218 32.8409 289.468 33.3693 289.968 33.8011C290.468 34.233 291.326 34.5795 292.542 34.8409L297.28 35.7955C299.826 36.3182 301.723 37.1591 302.973 38.3182C304.223 39.4773 304.848 41 304.848 42.8864C304.848 44.6023 304.343 46.108 303.331 47.4034C302.331 48.6989 300.956 49.7102 299.206 50.4375C297.468 51.1534 295.462 51.5114 293.189 51.5114C289.723 51.5114 286.962 50.7898 284.905 49.3466C282.86 47.892 281.661 45.9148 281.309 43.4148L288.451 43.0398C288.667 44.0966 289.189 44.9034 290.019 45.4602C290.848 46.0057 291.911 46.2784 293.206 46.2784C294.479 46.2784 295.502 46.0341 296.275 45.5455C297.059 45.0455 297.456 44.4034 297.468 43.6193C297.456 42.9602 297.178 42.4205 296.633 42C296.087 41.5682 295.246 41.2386 294.11 41.0114L289.576 40.108C287.019 39.5966 285.115 38.7102 283.865 37.4489C282.627 36.1875 282.008 34.5795 282.008 32.625C282.008 30.9432 282.462 29.4943 283.371 28.2784C284.292 27.0625 285.581 26.125 287.24 25.4659C288.911 24.8068 290.865 24.4773 293.104 24.4773C296.411 24.4773 299.013 25.1761 300.911 26.5739C302.82 27.9716 303.934 29.875 304.252 32.2841Z" fill="#181D27"/>
</svg>
