<svg width="218" height="48" viewBox="0 0 218 48" fill="none" xmlns="http://www.w3.org/2000/svg">
<rect width="218" height="48" rx="12" fill="#F5F5F5"/>
<rect x="8" y="4" width="77" height="40" rx="12" fill="#F5F5F5"/>
<g clip-path="url(#clip0_3255_4147)">
<path d="M19 12.5774C19.6188 12.2201 20.3812 12.2201 21 12.5774L29.3923 17.4226C30.0111 17.7799 30.3923 18.4402 30.3923 19.1547V28.8453C30.3923 29.5598 30.0111 30.2201 29.3923 30.5774L21 35.4226C20.3812 35.7799 19.6188 35.7799 19 35.4226L10.6077 30.5774C9.98889 30.2201 9.6077 29.5598 9.6077 28.8453V19.1547C9.6077 18.4402 9.98889 17.7799 10.6077 17.4226L19 12.5774Z" fill="#06AED4"/>
</g>
<path d="M40.5256 33H36.571L42.5966 15.5455H47.3523L53.3693 33H49.4148L45.0426 19.5341H44.9062L40.5256 33ZM40.2784 26.1392H49.6193V29.0199H40.2784V26.1392ZM55.3679 33V30.3409L61.581 24.5881C62.1094 24.0767 62.5526 23.6165 62.9105 23.2074C63.2741 22.7983 63.5497 22.3977 63.7372 22.0057C63.9247 21.608 64.0185 21.179 64.0185 20.7188C64.0185 20.2074 63.902 19.767 63.669 19.3977C63.4361 19.0227 63.1179 18.7358 62.7145 18.5369C62.3111 18.3324 61.8537 18.2301 61.3423 18.2301C60.8082 18.2301 60.3423 18.3381 59.9446 18.554C59.5469 18.7699 59.2401 19.0795 59.0241 19.483C58.8082 19.8864 58.7003 20.3665 58.7003 20.9233H55.1974C55.1974 19.7812 55.456 18.7898 55.973 17.9489C56.4901 17.108 57.2145 16.4574 58.1463 15.9972C59.0781 15.5369 60.152 15.3068 61.3679 15.3068C62.6179 15.3068 63.706 15.5284 64.6321 15.9716C65.5639 16.4091 66.2884 17.017 66.8054 17.7955C67.3224 18.5739 67.581 19.4659 67.581 20.4716C67.581 21.1307 67.4503 21.7812 67.1889 22.4233C66.9332 23.0653 66.4759 23.7784 65.8168 24.5625C65.1577 25.3409 64.2287 26.2756 63.0298 27.3665L60.4815 29.8636V29.983H67.8111V33H55.3679ZM70.5874 33V15.5455H77.576C78.8601 15.5455 79.9311 15.7358 80.7891 16.1165C81.647 16.4972 82.2919 17.0256 82.7237 17.7017C83.1555 18.3722 83.3714 19.1449 83.3714 20.0199C83.3714 20.7017 83.2351 21.3011 82.9624 21.8182C82.6896 22.3295 82.3146 22.75 81.8374 23.0795C81.3658 23.4034 80.826 23.6335 80.218 23.7699V23.9403C80.8828 23.9687 81.505 24.1562 82.0845 24.5028C82.6697 24.8494 83.1442 25.3352 83.5078 25.9602C83.8714 26.5795 84.0533 27.3182 84.0533 28.1761C84.0533 29.1023 83.8232 29.929 83.3629 30.6562C82.9084 31.3778 82.2351 31.9489 81.343 32.3693C80.451 32.7898 79.3516 33 78.0447 33H70.5874ZM74.2777 29.983H77.2862C78.3146 29.983 79.0646 29.7869 79.5362 29.3949C80.0078 28.9972 80.2436 28.4687 80.2436 27.8097C80.2436 27.3267 80.1271 26.9006 79.8942 26.5312C79.6612 26.1619 79.3288 25.8722 78.897 25.6619C78.4709 25.4517 77.9624 25.3466 77.3714 25.3466H74.2777V29.983ZM74.2777 22.8494H77.0135C77.5192 22.8494 77.968 22.7614 78.3601 22.5852C78.7578 22.4034 79.0703 22.1477 79.2976 21.8182C79.5305 21.4886 79.647 21.0938 79.647 20.6335C79.647 20.0028 79.4226 19.4943 78.9737 19.108C78.5305 18.7216 77.8999 18.5284 77.0817 18.5284H74.2777V22.8494Z" fill="#181D27"/>
<defs>
<clipPath id="clip0_3255_4147">
<rect width="24" height="24" fill="white" transform="translate(8 12)"/>
</clipPath>
</defs>
</svg>
