<svg width="28" height="28" viewBox="0 0 28 28" fill="none" xmlns="http://www.w3.org/2000/svg">
<path d="M2.3335 8.16675L11.8592 14.8348C12.6306 15.3747 13.0163 15.6447 13.4358 15.7493C13.8064 15.8416 14.194 15.8416 14.5645 15.7493C14.984 15.6447 15.3697 15.3747 16.1411 14.8348L25.6668 8.16675M7.9335 23.3334H20.0668C22.027 23.3334 23.0071 23.3334 23.7558 22.9519C24.4144 22.6164 24.9498 22.0809 25.2854 21.4224C25.6668 20.6737 25.6668 19.6936 25.6668 17.7334V10.2667C25.6668 8.30656 25.6668 7.32647 25.2854 6.57778C24.9498 5.91921 24.4144 5.38378 23.7558 5.04823C23.0071 4.66675 22.027 4.66675 20.0668 4.66675H7.9335C5.97331 4.66675 4.99322 4.66675 4.24453 5.04823C3.58596 5.38378 3.05053 5.91921 2.71497 6.57778C2.3335 7.32647 2.3335 8.30656 2.3335 10.2667V17.7334C2.3335 19.6936 2.3335 20.6737 2.71497 21.4224C3.05053 22.0809 3.58596 22.6164 4.24453 22.9519C4.99322 23.3334 5.97331 23.3334 7.9335 23.3334Z" stroke="black" stroke-width="2" stroke-linecap="round" stroke-linejoin="round"/>
</svg>
