<svg width="48" height="48" viewBox="0 0 48 48" fill="none" xmlns="http://www.w3.org/2000/svg">
<path d="M24 24L15.4542 16.8785C14.1845 15.8204 13.5497 15.2914 13.0933 14.6429C12.6889 14.0683 12.3886 13.4271 12.206 12.7486C12 11.9828 12 11.1564 12 9.5036V4M24 24L32.5458 16.8785C33.8155 15.8204 34.4503 15.2914 34.9067 14.6429C35.3111 14.0683 35.6114 13.4271 35.794 12.7486C36 11.9828 36 11.1564 36 9.5036V4M24 24L15.4542 31.1215C14.1845 32.1796 13.5497 32.7086 13.0933 33.3571C12.6889 33.9317 12.3886 34.5729 12.206 35.2514C12 36.0172 12 36.8436 12 38.4964V44M24 24L32.5458 31.1215C33.8155 32.1796 34.4503 32.7086 34.9067 33.3571C35.3111 33.9317 35.6114 34.5729 35.794 35.2514C36 36.0172 36 36.8436 36 38.4964V44M8 4H40M8 44H40" stroke="#717680" stroke-width="4" stroke-linecap="round" stroke-linejoin="round"/>
</svg>
