<svg width="98" height="97" viewBox="0 0 98 97" fill="none" xmlns="http://www.w3.org/2000/svg">
<path d="M49.3002 95.2C75.3128 95.2 96.4002 74.1126 96.4002 48.1C96.4002 22.0874 75.3128 1 49.3002 1C23.2876 1 2.2002 22.0874 2.2002 48.1C2.2002 74.1126 23.2876 95.2 49.3002 95.2Z" fill="#F1F3FA" stroke="#D5DAE5" stroke-width="2" stroke-miterlimit="10"/>
<path d="M96.3 47.8999C96.3 61.8999 90.8 74.3999 81.1 82.9999H2.8C1.8 82.9999 1 82.1999 1 81.1999V16.1999C1 15.1999 1.8 14.3999 2.8 14.3999H82C90.8 22.6999 96.3 34.6999 96.3 47.8999Z" fill="#F1F3FA" stroke="#D5DAE5" stroke-width="2" stroke-miterlimit="10"/>
<path d="M80.9998 82.9H80.7998C82.0998 81.7 83.0998 80.5 84.1998 79.2C83.0998 80.6 82.2998 81.8 80.9998 82.9Z" fill="#F1F3FA"/>
<path d="M35.1 54.6999H3.9C3.4 54.6999 3 54.2999 3 53.7999V31.2999C3 30.7999 3.4 30.3999 3.9 30.3999H35.1C35.6 30.3999 36 30.7999 36 31.2999V53.6999C36 54.1999 35.6 54.6999 35.1 54.6999Z" fill="white"/>
<path d="M92.1 28.6H3.9C3.4 28.6 3 28.2 3 27.7V17.1C3 16.6 3.4 16.2 3.9 16.2H83.9C85.1 17.5 86.2 18.8999 87.3 20.2999C88.4 21.7999 89.5 23.5 90.4 25.1C91 26.3 91.6 27.4 92.1 28.6Z" fill="white"/>
<path d="M90.4001 25.1999H76.6001C76.3001 25.1999 76.1001 24.9999 76.1001 24.6999V20.8999C76.1001 20.5999 76.3001 20.3999 76.6001 20.3999H87.2001C88.4001 21.8999 89.4001 23.4999 90.4001 25.1999Z" fill="#AAB2C5"/>
<path d="M88.0001 23.2H79.6001C79.3001 23.2 79.1001 23 79.1001 22.7C79.1001 22.4 79.3001 22.2 79.6001 22.2H88.0001C88.3001 22.2 88.5001 22.4 88.5001 22.7C88.5001 23 88.3001 23.2 88.0001 23.2Z" fill="white"/>
<path d="M69.7001 54.6999H38.5001C38.0001 54.6999 37.6001 54.2999 37.6001 53.7999V31.2999C37.6001 30.7999 38.0001 30.3999 38.5001 30.3999H69.7001C70.2001 30.3999 70.6001 30.7999 70.6001 31.2999V53.6999C70.7001 54.1999 70.3001 54.6999 69.7001 54.6999Z" fill="white"/>
<path d="M95.6998 40.5999C95.0998 36.9999 94.1998 33.5999 92.8998 30.3999H73.1998C72.6998 30.3999 72.2998 30.7999 72.2998 31.3999V53.7999C72.2998 54.2999 72.6998 54.6999 73.1998 54.6999H95.7998C96.0998 52.4999 96.2998 50.1999 96.2998 47.9999C96.2998 45.9999 96.1998 43.9999 95.8998 41.9999L95.6998 40.5999Z" fill="white"/>
<path d="M35.1 80.7H3.9C3.4 80.7 3 80.3 3 79.8V57.4C3 56.9 3.4 56.5 3.9 56.5H35.1C35.6 56.5 36 56.9 36 57.4V79.8C36 80.3 35.6 80.7 35.1 80.7Z" fill="white"/>
<path d="M69.7001 80.7H38.5001C38.0001 80.7 37.6001 80.3 37.6001 79.8V57.4C37.6001 56.9 38.0001 56.5 38.5001 56.5H69.7001C70.2001 56.5 70.6001 56.9 70.6001 57.4V79.8C70.7001 80.3 70.3001 80.7 69.7001 80.7Z" fill="white"/>
<path d="M95.5001 56.5C95.3001 57.7 95.0001 58.8 94.7001 59.9C94.6001 60.3 94.5001 60.6 94.4001 61C94.1001 62.1 93.7001 63.2 93.3001 64.3C93.0001 65.1 92.6001 66 92.3001 66.8C92.0001 67.4 91.7001 68 91.4001 68.6C91.3001 68.9 91.1001 69.2 90.9001 69.5C90.3001 70.6 89.7001 71.7 89.0001 72.8C88.8001 73.1 88.6001 73.5 88.3001 73.8C87.6001 74.8 86.9001 75.8 86.2001 76.8C85.9001 77.2 85.6001 77.5 85.3001 77.9C84.5001 78.9 83.6001 79.9 82.7001 80.8H73.0001C72.5001 80.8 72.1001 80.4 72.1001 79.9V57.4C72.1001 56.9 72.5001 56.5 73.0001 56.5H95.5001Z" fill="white"/>
<path d="M23.4998 69.8001C23.4998 69.9001 23.4998 70.0001 23.3998 70.1001C23.2998 70.3001 23.2998 70.5001 23.2998 70.7001C23.1998 70.8001 23.1998 70.9001 23.1998 71.0001C23.0998 71.2001 23.0998 71.4001 22.9998 71.5001V71.6001C22.8998 71.7001 22.8998 71.8001 22.8998 71.8001C22.7998 71.9001 22.7998 72.0001 22.6998 72.0001L24.4998 73.6001C24.5998 73.5001 24.5998 73.4001 24.6998 73.3001C24.8998 73.0001 25.0998 72.7001 25.1998 72.4001C25.2998 72.3001 25.2998 72.2001 25.2998 72.1001C25.3998 71.8001 25.4998 71.5001 25.6998 71.2001C25.6998 71.1001 25.7998 71.0001 25.7998 71.0001C25.8998 70.8001 25.8998 70.6001 25.8998 70.5001C25.8998 70.4001 25.9998 70.3001 25.9998 70.3001C25.9998 70.2001 25.9998 70.1001 26.0998 70.1001V70.0001C26.0998 69.9001 26.0998 69.8001 26.0998 69.8001H23.4998ZM18.3998 74.3001C15.5998 74.3001 13.1998 72.0001 13.1998 69.2001C13.1998 66.5001 15.1998 64.4001 17.6998 64.1001V61.7001C13.8998 62.0001 10.7998 65.3001 10.7998 69.3001C10.7998 73.5001 14.1998 76.9001 18.3998 76.9001C20.4998 76.9001 22.3998 76.1001 23.6998 74.7001L21.8998 73.0001C20.9998 73.9001 19.6998 74.3001 18.3998 74.3001ZM18.9998 61.6001V64.0001C21.3998 64.3001 23.1998 66.1001 23.4998 68.4001H25.9998C25.6998 64.8001 22.6998 61.9001 18.9998 61.6001Z" fill="#F1F3FA"/>
<path d="M25.9996 68.5002H23.5996C23.2996 66.1002 21.3996 64.3002 19.0996 64.1002V61.7002C22.6996 61.9002 25.6996 64.8002 25.9996 68.5002Z" fill="#AAB2C5"/>
<path d="M25.9997 69.8C25.9997 69.9 25.9997 70 25.9997 70V70.1C25.9997 70.2 25.9997 70.3 25.8997 70.3C25.8997 70.4 25.8997 70.5 25.7997 70.5C25.6997 70.7 25.6997 70.9 25.6997 71C25.6997 71.1 25.5997 71.2 25.5997 71.2C25.4997 71.5 25.3997 71.8 25.1997 72.1C25.0997 72.2 25.0997 72.3 25.0997 72.4C24.9997 72.7 24.7997 73 24.5997 73.3C24.4997 73.4 24.4997 73.5 24.3997 73.6L22.6997 72C22.7997 71.9 22.7997 71.8 22.8997 71.8C22.9997 71.7 22.9997 71.6 22.9997 71.6V71.5C23.0997 71.3 23.1997 71.1 23.1997 71C23.2997 70.9 23.2997 70.8 23.2997 70.7C23.3997 70.5 23.3997 70.3 23.3997 70.1C23.3997 70 23.4997 69.9 23.4997 69.8H25.9997Z" fill="#D5DAE5"/>
<path d="M95.9002 41.9C95.9002 41.5 95.8002 41.1 95.7002 40.6L90.4002 45.9C90.2002 45.8 89.9002 45.7 89.7002 45.7C89.5002 45.7 89.2002 45.8 89.0002 45.9L84.2002 41.1C84.3002 40.9 84.3002 40.8 84.3002 40.5C84.3002 39.6 83.6002 39 82.8002 39C82.0002 39 81.3002 39.7 81.3002 40.5C81.3002 40.7 81.3002 40.9 81.4002 41.1L77.3002 45C77.1002 44.9 76.9002 44.9 76.7002 44.9C75.8002 44.9 75.2002 45.6 75.2002 46.4C75.2002 47.2 75.9002 47.9 76.7002 47.9C77.5002 47.9 78.2002 47.2 78.2002 46.4C78.2002 46.2 78.1002 46 78.0002 45.8L81.9002 41.8C82.2002 41.9 82.3002 42 82.5002 42C82.7002 42 83.0002 41.9 83.1002 41.8L87.9002 46.6C87.8002 46.8 87.8002 46.9 87.8002 47.1C87.8002 48 88.5002 48.6 89.3002 48.6C90.2002 48.6 90.8002 47.9 90.8002 47.1C90.8002 46.9 90.8002 46.8 90.7002 46.6L95.9002 41.9ZM76.8002 47.3C76.4002 47.3 76.1002 47 76.1002 46.6C76.1002 46.2 76.4002 45.9 76.8002 45.9C77.2002 45.9 77.5002 46.2 77.5002 46.6C77.5002 46.9 77.2002 47.3 76.8002 47.3ZM82.8002 41.2C82.4002 41.2 82.1002 40.9 82.1002 40.5C82.1002 40.1 82.4002 39.8 82.8002 39.8C83.2002 39.8 83.5002 40.1 83.5002 40.5C83.5002 40.9 83.3002 41.2 82.8002 41.2ZM89.8002 48C89.4002 48 89.1002 47.7 89.1002 47.3C89.1002 46.9 89.4002 46.6 89.8002 46.6C90.2002 46.6 90.5002 46.9 90.5002 47.3C90.6002 47.7 90.3002 48 89.8002 48Z" fill="#D5DAE5"/>
<path d="M43.5999 46.7H42.1999C42.0999 46.7 41.8999 46.5 41.8999 46.4V38.8C41.8999 38.6 41.9999 38.5 42.1999 38.5H43.5999C43.6999 38.5 43.8999 38.7 43.8999 38.8V46.4C43.7999 46.5 43.6999 46.7 43.5999 46.7Z" fill="#AAB2C5"/>
<path d="M44.4001 46.7001H42.8001C42.7001 46.7001 42.6001 46.6 42.6001 46.5V43C42.6001 42.8 42.7001 42.8 42.8001 42.8H44.4001C44.5001 42.8 44.6001 42.9 44.6001 43V46.5C44.6001 46.6 44.5001 46.7001 44.4001 46.7001Z" fill="#D5DAE5"/>
<path d="M47.2 46.7001H45.8C45.7 46.7001 45.5 46.5001 45.5 46.4001V41.1C45.5 40.9 45.6 40.8 45.8 40.8H47.2C47.3 40.8 47.5 41 47.5 41.1V46.4001C47.5 46.5001 47.3 46.7001 47.2 46.7001Z" fill="#AAB2C5"/>
<path d="M50.8001 46.7H49.4001C49.3001 46.7 49.1001 46.5 49.1001 46.4V43C49.1001 42.8 49.2001 42.7 49.4001 42.7H50.8001C50.9001 42.7 51.1001 42.9 51.1001 43V46.2999C51.1001 46.4999 50.9001 46.7 50.8001 46.7Z" fill="#AAB2C5"/>
<path d="M54.3997 46.7001H52.9997C52.8997 46.7001 52.6997 46.5001 52.6997 46.4001V40.1C52.6997 39.9 52.7997 39.8 52.9997 39.8H54.3997C54.4997 39.8 54.6997 40 54.6997 40.1V46.4001C54.6997 46.5001 54.5997 46.7001 54.3997 46.7001Z" fill="#AAB2C5"/>
<path d="M58.0999 46.7001H56.6999C56.5999 46.7001 56.3999 46.5001 56.3999 46.4001V42.6C56.3999 42.4 56.4999 42.3 56.6999 42.3H58.0999C58.1999 42.3 58.3999 42.5 58.3999 42.6V46.4001C58.3999 46.5001 58.2999 46.7001 58.0999 46.7001Z" fill="#AAB2C5"/>
<path d="M61.7 46.7001H60.3C60.2 46.7001 60 46.5001 60 46.4001V41.1C60 40.9 60.1 40.8 60.3 40.8H61.7C61.8 40.8 62 41 62 41.1V46.4001C62 46.5001 61.9 46.7001 61.7 46.7001Z" fill="#AAB2C5"/>
<path d="M65.3997 46.7H63.9997C63.8997 46.7 63.6997 46.5 63.6997 46.4V43C63.6997 42.8 63.7997 42.7 63.9997 42.7H65.3997C65.4997 42.7 65.6997 42.9 65.6997 43V46.2999C65.5997 46.4999 65.4997 46.7 65.3997 46.7Z" fill="#AAB2C5"/>
<path d="M47.9997 46.7H46.2997C46.1997 46.7 46.1997 46.6 46.1997 46.5V44.4C46.1997 44.3 46.2997 44.2 46.2997 44.2H47.9997C48.0997 44.2 48.0997 44.3 48.0997 44.4V46.5C48.1997 46.6 48.0997 46.7 47.9997 46.7Z" fill="#D5DAE5"/>
<path d="M51.6999 46.7001H49.9999C49.8999 46.7001 49.8999 46.6 49.8999 46.5V45.5C49.8999 45.4 49.9999 45.3 49.9999 45.3H51.6999C51.7999 45.3 51.7999 45.4 51.7999 45.5V46.5C51.7999 46.6 51.7999 46.7001 51.6999 46.7001Z" fill="#D5DAE5"/>
<path d="M55.3 46.7001H53.6C53.5 46.7001 53.5 46.6 53.5 46.5V45C53.5 44.9 53.6 44.8 53.6 44.8H55.3C55.4 44.8 55.4 44.9 55.4 45V46.5C55.5 46.6 55.5 46.7001 55.3 46.7001Z" fill="#D5DAE5"/>
<path d="M58.9998 46.7001H57.3998C57.2998 46.7001 57.2998 46.6001 57.2998 46.5001V43.8001C57.2998 43.7001 57.3998 43.6001 57.3998 43.6001H58.9998C59.0998 43.6001 59.0998 43.7001 59.0998 43.8001V46.5001C59.1998 46.6001 59.0998 46.7001 58.9998 46.7001Z" fill="#D5DAE5"/>
<path d="M62.7999 46.7H60.9999C60.8999 46.7 60.8999 46.7 60.8999 46.6V46.1C60.8999 46 60.8999 46 60.9999 46H62.7999C62.8999 46 62.8999 46 62.8999 46.1V46.5C62.8999 46.6 62.8999 46.7 62.7999 46.7Z" fill="#D5DAE5"/>
<path d="M66.4 46.7001H64.6C64.6 46.7001 64.5 46.7 64.5 46.6V46.4001C64.5 46.4001 64.5 46.3 64.6 46.3H66.4C66.4 46.3 66.5 46.3001 66.5 46.4001L66.4 46.7001C66.5 46.6001 66.4 46.7001 66.4 46.7001Z" fill="#D5DAE5"/>
<path d="M67.9998 59.7H40.2998V63.4H67.9998V59.7Z" fill="#F1F3FA"/>
<path d="M56.3998 60.8999H48.7998V61.9999H56.3998V60.8999Z" fill="#D5DAE5"/>
<path d="M65.9998 60.8999H63.2998V61.9999H65.9998V60.8999Z" fill="#D5DAE5"/>
<path d="M67.9998 66.7H40.2998V70.4H67.9998V66.7Z" fill="#F1F3FA"/>
<path d="M54.0998 68H48.7998V69.1H54.0998V68Z" fill="#D5DAE5"/>
<path d="M65.9998 68H61.2998V69.1H65.9998V68Z" fill="#D5DAE5"/>
<path d="M67.9998 73.8H40.2998V77.5H67.9998V73.8Z" fill="#F1F3FA"/>
<path d="M57.5998 75.1001H48.7998V76.2001H57.5998V75.1001Z" fill="#D5DAE5"/>
<path d="M66 75.1001H64.5V76.2001H66V75.1001Z" fill="#D5DAE5"/>
<path d="M10.4002 21.1001H6.2002C5.9002 21.1001 5.7002 20.8001 5.7002 20.6001V20.1001C5.7002 19.8001 6.0002 19.6001 6.2002 19.6001H10.4002C10.7002 19.6001 10.9002 19.9001 10.9002 20.1001V20.6001C10.9002 20.8001 10.7002 21.1001 10.4002 21.1001Z" fill="#D5DAE5"/>
<path d="M39.3 21.1001H14.5C14.2 21.1001 14 20.8001 14 20.6001V20.1001C14 19.8001 14.3 19.6001 14.5 19.6001H39.3C39.6 19.6001 39.8 19.9001 39.8 20.1001V20.6001C39.8 20.8001 39.6 21.1001 39.3 21.1001Z" fill="#F1F3FA"/>
<path d="M10.4002 25.2H6.2002C5.9002 25.2 5.7002 24.9 5.7002 24.7V24.2C5.7002 23.9 6.0002 23.7 6.2002 23.7H10.4002C10.7002 23.7 10.9002 24 10.9002 24.2V24.7C10.9002 25 10.7002 25.2 10.4002 25.2Z" fill="#D5DAE5"/>
<path d="M27.8 24.7C27.8 25 27.5 25.2 27.3 25.2H14.5C14.2 25.2 14 24.9 14 24.7V24.2C14 23.9 14.3 23.7 14.5 23.7H27.3C27.6 23.7 27.8 24 27.8 24.2V24.7Z" fill="#F1F3FA"/>
<path d="M32.5002 51.7001H5.7002V35.1001C7.1002 35.2001 8.5002 35.3001 9.8002 35.7001C10.4002 35.9001 10.8002 36.1001 11.2002 36.5001C11.4002 36.7001 11.4002 36.8001 11.4002 36.9001C11.6002 37.4001 12.0002 37.7001 12.7002 37.8001L13.3002 37.9001C14.5002 38.0001 15.4002 38.7001 15.5002 39.5001L15.7002 40.9001C17.0002 41.2001 17.1002 41.2001 18.3002 41.5001C18.5002 41.6001 18.5002 41.5001 18.6002 41.4001C18.7002 41.3001 18.8002 41.3001 18.9002 41.3001C19.1002 41.3001 19.1002 41.3001 19.3002 41.2001C19.5002 41.1001 19.7002 41.1001 19.8002 41.3001C20.3002 42.0001 21.3002 42.4001 21.9002 43.0001C22.6002 43.7001 23.8002 43.6001 24.6002 43.6001C24.8002 43.6001 25.1002 43.7001 25.3002 43.8001C26.3002 44.5001 27.9002 46.8001 29.2002 46.8001C29.7002 46.8001 30.1002 47.0001 30.4002 47.2001C31.5002 48.7001 32.2002 50.1001 32.5002 51.7001Z" fill="#F1F3FA"/>
<path d="M31.8002 51.8999C31.5002 50.3999 30.8002 49.1999 29.7002 47.8999C29.6002 47.7999 29.3002 47.6999 29.0002 47.6999C27.8002 47.6999 26.8002 46.5999 25.8002 45.5999C25.4002 45.1999 25.0002 44.7999 24.7002 44.5999C24.6002 44.4999 24.4002 44.4999 24.4002 44.4999C24.2002 44.4999 24.1002 44.4999 23.9002 44.4999C23.1002 44.4999 22.0002 44.3999 21.2002 43.6999C21.0002 43.3999 20.7002 43.1999 20.3002 42.9999C19.9002 42.6999 19.5002 42.4999 19.2002 42.0999C19.1002 42.0999 18.9002 42.0999 18.8002 42.0999C18.7002 42.1999 18.3002 42.3999 17.8002 42.1999L17.2002 41.9999C16.6002 41.8999 16.3002 41.7999 15.3002 41.5999H15.0002L14.8002 39.6999C14.8002 39.1999 14.1002 38.7999 13.3002 38.6999L12.7002 38.5999C11.8002 38.4999 11.0002 37.9999 10.8002 37.1999V37.0999C10.5002 36.7999 10.2002 36.5999 9.8002 36.4999C8.4002 35.9999 7.0002 35.8999 5.7002 35.8999L5.8002 34.3999C7.2002 34.4999 8.7002 34.5999 10.1002 35.0999C10.8002 35.2999 11.4002 35.6999 11.8002 36.1999C11.9002 36.2999 12.1002 36.5999 12.2002 36.9999C12.3002 37.1999 12.5002 37.2999 12.8002 37.2999L13.4002 37.3999C15.0002 37.4999 16.1002 38.4999 16.3002 39.6999L16.4002 40.4999C17.0002 40.5999 17.3002 40.6999 17.8002 40.7999L18.4002 40.8999C18.6002 40.7999 18.8002 40.6999 19.0002 40.6999C19.1002 40.6999 19.1002 40.6999 19.2002 40.6999C19.7002 40.4999 20.3002 40.6999 20.6002 41.0999C20.8002 41.2999 21.2002 41.5999 21.5002 41.7999C21.9002 42.0999 22.3002 42.2999 22.6002 42.6999C22.9002 42.9999 23.6002 42.9999 24.3002 43.0999C24.5002 43.0999 24.6002 43.0999 24.8002 43.0999C25.2002 43.0999 25.5002 43.2999 25.8002 43.3999L25.9002 43.4999C26.3002 43.7999 26.8002 44.1999 27.2002 44.6999C27.8002 45.3999 28.8002 46.2999 29.3002 46.2999C29.9002 46.2999 30.5002 46.4999 31.0002 46.8999C32.4002 48.3999 33.2002 49.8999 33.5002 51.6999L31.8002 51.8999Z" fill="#D5DAE5"/>
<path d="M31.4002 41.6001H19.6002C19.1002 41.6001 18.7002 41.2001 18.7002 40.7001V36.5001C18.7002 36.0001 19.1002 35.6001 19.6002 35.6001H31.4002C31.9002 35.6001 32.3002 36.0001 32.3002 36.5001V40.7001C32.3002 41.2001 31.9002 41.6001 31.4002 41.6001Z" fill="#AAB2C5"/>
<path d="M29.8999 37.3H21.1999C20.9999 37.3 20.8999 37.5 20.8999 37.6C20.8999 37.8 21.0999 37.9001 21.1999 37.9001H29.8999C30.0999 37.9001 30.1999 37.7 30.1999 37.6C30.1999 37.5 29.9999 37.3 29.8999 37.3Z" fill="white"/>
<path d="M25.7998 39.3H21.0998C20.8998 39.3 20.7998 39.5 20.7998 39.6C20.7998 39.7 20.9998 39.9001 21.0998 39.9001H25.7998C25.9998 39.9001 26.0998 39.7 26.0998 39.6C26.0998 39.5 25.8998 39.3 25.7998 39.3Z" fill="white"/>
<path d="M83.9002 68.4999H76.0002V65.1999H83.9002V68.4999ZM76.1002 69.4999H84.0002V72.7999H76.1002V69.4999ZM76.7002 60.9999H84.0002V64.3999H76.1002V61.6999C76.1002 61.1999 76.4002 60.9999 76.7002 60.9999ZM76.1002 76.0999V73.6999H84.0002V76.6999H76.7002C76.4002 76.7999 76.1002 76.4999 76.1002 76.0999ZM94.4002 60.9999C94.5002 60.5999 94.6002 60.2999 94.7002 59.8999H76.7002C75.8002 59.8999 75.2002 60.6999 75.2002 61.5999V76.0999C75.2002 76.9999 75.9002 77.7999 76.7002 77.7999H85.5002C85.8002 77.3999 86.1002 77.0999 86.4002 76.6999H85.0002V73.6999H88.5002C88.7002 73.3999 88.9002 72.9999 89.2002 72.6999H85.0002V69.3999H91.0002C91.2002 69.0999 91.3002 68.7999 91.5002 68.4999H85.0002V65.1999H92.4002V66.5999C92.8002 65.7999 93.1002 64.8999 93.4002 64.0999H93.3002V60.9999H94.4002ZM92.3002 64.2999H85.0002V60.9999H92.4002V64.2999H92.3002Z" fill="#F1F3FA"/>
<path d="M79.5 11.8999C89.9 20.4999 96.5 33.4999 96.5 48.0999C96.5 62.8999 89.7 76.0999 79 84.6999" stroke="#D5DAE5" stroke-width="2" stroke-miterlimit="10"/>
</svg>
