<svg width="32" height="32" viewBox="0 0 32 32" fill="none" xmlns="http://www.w3.org/2000/svg">
<g clip-path="url(#clip0_1160_352)">
<path d="M14 1.1547C15.2376 0.440169 16.7624 0.440169 18 1.1547L27.8564 6.8453C29.094 7.55983 29.8564 8.88034 29.8564 10.3094V21.6906C29.8564 23.1197 29.094 24.4402 27.8564 25.1547L18 30.8453C16.7624 31.5598 15.2376 31.5598 14 30.8453L4.14359 25.1547C2.90599 24.4402 2.14359 23.1197 2.14359 21.6906V10.3094C2.14359 8.88034 2.90599 7.55983 4.14359 6.8453L14 1.1547Z" fill="#06AED4"/>
<path d="M5.98153 20H4.29403L7.36648 11.2727H9.31818L12.3949 20H10.7074L8.37642 13.0625H8.30824L5.98153 20ZM6.03693 16.5781H10.6392V17.848H6.03693V16.5781ZM13.4592 20V18.858L16.489 15.8878C16.7788 15.5952 17.0202 15.3352 17.2134 15.108C17.4066 14.8807 17.5515 14.6605 17.6481 14.4474C17.7447 14.2344 17.793 14.0071 17.793 13.7656C17.793 13.4901 17.7305 13.2543 17.6055 13.0582C17.4805 12.8594 17.3086 12.706 17.0898 12.598C16.8711 12.4901 16.6225 12.4361 16.3441 12.4361C16.0572 12.4361 15.8058 12.4957 15.5898 12.6151C15.3739 12.7315 15.2063 12.8977 15.087 13.1136C14.9705 13.3295 14.9123 13.5866 14.9123 13.8849H13.408C13.408 13.331 13.5344 12.8494 13.7873 12.4403C14.0401 12.0312 14.3881 11.7145 14.8313 11.4901C15.2773 11.2656 15.7887 11.1534 16.3654 11.1534C16.9506 11.1534 17.4648 11.2628 17.908 11.4815C18.3512 11.7003 18.695 12 18.9393 12.3807C19.1864 12.7614 19.31 13.196 19.31 13.6847C19.31 14.0114 19.2475 14.3324 19.1225 14.6477C18.9975 14.9631 18.7773 15.3125 18.462 15.696C18.1495 16.0795 17.7106 16.544 17.1452 17.0895L15.641 18.6193V18.679H19.4421V20H13.4592ZM20.9975 20V11.2727H24.3384C24.9691 11.2727 25.4933 11.3722 25.9109 11.571C26.3313 11.767 26.6452 12.0355 26.8526 12.3764C27.0629 12.7173 27.168 13.1037 27.168 13.5355C27.168 13.8906 27.0998 14.1946 26.9634 14.4474C26.8271 14.6974 26.6438 14.9006 26.4137 15.0568C26.1836 15.2131 25.9265 15.3253 25.6424 15.3935V15.4787C25.9521 15.4957 26.2489 15.5909 26.533 15.7642C26.82 15.9347 27.0543 16.1761 27.2362 16.4886C27.418 16.8011 27.5089 17.179 27.5089 17.6222C27.5089 18.0739 27.3995 18.4801 27.1808 18.8409C26.962 19.1989 26.6325 19.4815 26.1921 19.6889C25.7518 19.8963 25.1978 20 24.5302 20H20.9975ZM22.5785 18.679H24.2788C24.8526 18.679 25.266 18.5696 25.5188 18.3509C25.7745 18.1293 25.9023 17.8452 25.9023 17.4986C25.9023 17.2401 25.8384 17.0071 25.7106 16.7997C25.5827 16.5895 25.4009 16.4247 25.1651 16.3054C24.9293 16.1832 24.6481 16.1222 24.3214 16.1222H22.5785V18.679ZM22.5785 14.9844H24.1424C24.4151 14.9844 24.6609 14.9347 24.8796 14.8352C25.0984 14.733 25.2702 14.5895 25.3952 14.4048C25.5231 14.2173 25.587 13.9957 25.587 13.7401C25.587 13.402 25.4677 13.1236 25.229 12.9048C24.9933 12.6861 24.6424 12.5767 24.1765 12.5767H22.5785V14.9844Z" fill="white"/>
</g>
<defs>
<clipPath id="clip0_1160_352">
<rect width="32" height="32" fill="white"/>
</clipPath>
</defs>
</svg>
